<?xml version="1.0" standalone="no"?>
<!DOCTYPE svg PUBLIC "-//W3C//DTD SVG 20010904//EN"
 "http://www.w3.org/TR/2001/REC-SVG-20010904/DTD/svg10.dtd">
<svg version="1.0" xmlns="http://www.w3.org/2000/svg"
 width="700.000000pt" height="700.000000pt" viewBox="0 0 700.000000 700.000000"
 preserveAspectRatio="xMidYMid meet">
<metadata>
Created by potrace 1.14, written by Peter Selinger 2001-2017
</metadata>
<g transform="translate(0.000000,700.000000) scale(0.100000,-0.100000)"
fill="#000000" stroke="none">
<path d="M0 3500 l0 -3500 652 3 653 2 1867 3485 c1027 1917 1867 3488 1868
3493 0 4 -218 6 -485 5 -267 -2 -485 0 -485 5 0 4 -916 7 -2035 7 l-2035 0 0
-3500z"/>
<path d="M4178 3501 c-1028 -1918 -1868 -3491 -1868 -3494 0 -4 215 -7 478 -7
l478 0 1864 3481 c1026 1914 1866 3487 1868 3495 3 12 -65 14 -475 14 l-478 0
-1867 -3489z"/>
</g>
</svg>
