<svg width="20" height="22" viewBox="0 0 20 22" xmlns="http://www.w3.org/2000/svg">
<path d="M19.1188 5.25358C17.7255 5.25354 16.3893 4.70002 15.4041 3.71479C14.4189 2.72955 13.8654 1.3933 13.8654 0H10.1121V14.6974C10.1114 15.3675 9.89981 16.0203 9.50733 16.5635C9.11485 17.1066 8.56139 17.5124 7.92539 17.7234C7.28939 17.9344 6.60311 17.9399 5.96382 17.7391C5.32453 17.5382 4.76467 17.1413 4.36357 16.6045C3.96248 16.0677 3.74051 15.4183 3.72912 14.7483C3.71773 14.0783 3.91749 13.4217 4.30011 12.8716C4.68272 12.3215 5.22877 11.9058 5.86086 11.6833C6.49295 11.4609 7.17902 11.443 7.82183 11.6323V7.98371C6.45575 7.79951 5.06598 8.03644 3.83811 8.66289C2.61023 9.28933 1.60269 10.2755 0.950024 11.4896C0.297356 12.7037 0.0306243 14.0881 0.185447 15.4578C0.34027 16.8275 0.909279 18.1174 1.81649 19.1552C2.7237 20.193 3.92594 20.9294 5.26267 21.266C6.59939 21.6025 8.00698 21.5233 9.29748 21.0388C10.588 20.5543 11.7 19.6876 12.4849 18.5545C13.2699 17.4214 13.6905 16.0758 13.6906 14.6974L13.8001 7.26833C15.3422 8.40042 17.2061 9.00955 19.1192 9.0067L19.1188 5.25358Z"/>
</svg>
