<svg width="21" height="23" viewBox="0 0 21 23" xmlns="http://www.w3.org/2000/svg">
<path d="M4.86456 3.97568C5.28056 1.63968 6.40856 0.47168 8.24856 0.47168C8.68056 0.47168 9.06456 0.55168 9.40056 0.71168C9.75256 0.85568 10.1446 1.07168 10.5766 1.35968C10.9606 1.59968 11.2726 1.77568 11.5126 1.88768C11.7686 1.99968 12.0326 2.05568 12.3046 2.05568C12.7206 2.05568 13.0726 1.91968 13.3606 1.64768C13.6646 1.35968 13.8486 0.97568 13.9126 0.49568H15.5446C15.1446 2.83168 14.0086 3.99968 12.1366 3.99968C11.7206 3.99968 11.3526 3.92768 11.0326 3.78368C10.7126 3.63968 10.3206 3.42368 9.85656 3.13568C9.47256 2.89568 9.16056 2.71968 8.92056 2.60768C8.68056 2.47968 8.40856 2.41568 8.10456 2.41568C7.68856 2.41568 7.32856 2.55968 7.02456 2.84768C6.72056 3.11968 6.53656 3.49568 6.47256 3.97568H4.86456Z"/>
<path d="M20.2992 8.82767C19.5992 9.12767 18.7992 9.32768 17.9992 9.42768C18.7992 8.92768 19.4992 8.12768 19.7992 7.22768C18.9992 7.72768 18.1992 8.02768 17.1992 8.22768C16.4992 7.42768 15.3992 6.92768 14.2992 6.92768C12.0992 6.92768 10.2992 8.72768 10.2992 10.9277C10.2992 11.2277 10.2992 11.5277 10.3992 11.8277C7.09922 11.6277 4.09921 10.0277 2.09921 7.62768C1.79921 8.22768 1.59921 8.92768 1.59921 9.62768C1.59921 11.0277 2.29922 12.2277 3.39922 12.9277C2.69922 12.9277 2.09921 12.7277 1.59921 12.4277C1.59921 14.3277 2.99921 16.0277 4.79921 16.3277C4.49921 16.4277 4.09922 16.4277 3.69922 16.4277C3.39922 16.4277 3.19922 16.4277 2.89922 16.3277C3.39922 17.9277 4.89922 19.1277 6.69922 19.1277C5.29922 20.2277 3.59922 20.8277 1.69922 20.8277C1.39922 20.8277 1.09922 20.8277 0.699219 20.7277C2.49922 21.8277 4.59922 22.5277 6.89922 22.5277C14.2992 22.5277 18.2992 16.4277 18.2992 11.1277V10.6277C19.0992 10.3277 19.7992 9.62767 20.2992 8.82767Z"/>
</svg>
