<svg width="58" height="58" viewBox="0 0 58 58" fill="none" xmlns="http://www.w3.org/2000/svg">
<circle cx="29" cy="29" r="28" fill="white" fill-opacity="0.1" stroke="#F5F3F7" stroke-width="2"/>
<path fill-rule="evenodd" clip-rule="evenodd" d="M42.0879 15.206L40.0062 18.3484L33.1768 14.1117L35.2587 10.9693C35.6899 10.319 36.5792 10.125 37.2417 10.5358L41.6671 13.2814C42.3299 13.6924 42.5186 14.556 42.0879 15.206ZM16.6477 39.5432L15.0474 48.7499L23.0246 43.4998C22.2669 42.4857 21.3264 41.6273 20.2207 40.9415C19.1147 40.2554 17.9162 39.7863 16.6477 39.5432ZM17.473 37.8156C18.8118 38.1215 20.0807 38.6418 21.2593 39.3732C22.4381 40.1043 23.4563 41.0031 24.3023 42.0524L38.9671 19.9164L32.1377 15.6794L17.473 37.8156Z" fill="#F5F3F7"/>
</svg>
