<svg width="58" height="58" viewBox="0 0 58 58" fill="none" xmlns="http://www.w3.org/2000/svg">
<g filter="url(#filter0_b_64_4387)">
<circle cx="29" cy="29" r="29" fill="white" fill-opacity="0.1"/>
<circle cx="29" cy="29" r="28" stroke="white" stroke-width="2"/>
</g>
<path fill-rule="evenodd" clip-rule="evenodd" d="M42.0879 15.2055L40.0062 18.348L33.1768 14.1112L35.2587 10.9688C35.6899 10.3185 36.5792 10.1245 37.2417 10.5353L41.6671 13.2809C42.3299 13.6919 42.5186 14.5555 42.0879 15.2055ZM16.6477 39.5427L15.0474 48.7494L23.0246 43.4993C22.2669 42.4852 21.3264 41.6268 20.2207 40.941C19.1147 40.2549 17.9162 39.7858 16.6477 39.5427ZM17.473 37.8151C18.8118 38.121 20.0807 38.6413 21.2593 39.3727C22.4381 40.1038 23.4563 41.0026 24.3023 42.052L38.9671 19.9159L32.1377 15.6789L17.473 37.8151Z" fill="white"/>
<defs>
<filter id="filter0_b_64_4387" x="-10" y="-10" width="78" height="78" filterUnits="userSpaceOnUse" color-interpolation-filters="sRGB">
<feFlood flood-opacity="0" result="BackgroundImageFix"/>
<feGaussianBlur in="BackgroundImageFix" stdDeviation="5"/>
<feComposite in2="SourceAlpha" operator="in" result="effect1_backgroundBlur_64_4387"/>
<feBlend mode="normal" in="SourceGraphic" in2="effect1_backgroundBlur_64_4387" result="shape"/>
</filter>
</defs>
</svg>
