<svg width="58" height="58" viewBox="0 0 58 58" fill="none" xmlns="http://www.w3.org/2000/svg">
<g filter="url(#filter0_b_2167_71475)">
<circle cx="29" cy="29" r="29" fill="white" fill-opacity="0.1"/>
<circle cx="29" cy="29" r="28" stroke="#F2566E" stroke-width="2"/>
</g>
<path fill-rule="evenodd" clip-rule="evenodd" d="M42.0879 15.2059L40.0062 18.3483L33.1768 14.1116L35.2587 10.9691C35.6899 10.3189 36.5792 10.1249 37.2417 10.5356L41.6671 13.2813C42.3299 13.6922 42.5186 14.5558 42.0879 15.2059ZM16.6477 39.5431L15.0474 48.7498L23.0246 43.4997C22.2669 42.4856 21.3264 41.6272 20.2207 40.9414C19.1147 40.2553 17.9162 39.7862 16.6477 39.5431ZM17.473 37.8155C18.8118 38.1214 20.0807 38.6416 21.2593 39.3731C22.4381 40.1042 23.4563 41.003 24.3023 42.0523L38.9671 19.9163L32.1377 15.6792L17.473 37.8155Z" fill="#F2566E"/>
<defs>
<filter id="filter0_b_2167_71475" x="-10" y="-10" width="78" height="78" filterUnits="userSpaceOnUse" color-interpolation-filters="sRGB">
<feFlood flood-opacity="0" result="BackgroundImageFix"/>
<feGaussianBlur in="BackgroundImageFix" stdDeviation="5"/>
<feComposite in2="SourceAlpha" operator="in" result="effect1_backgroundBlur_2167_71475"/>
<feBlend mode="normal" in="SourceGraphic" in2="effect1_backgroundBlur_2167_71475" result="shape"/>
</filter>
</defs>
</svg>
