<svg xmlns="http://www.w3.org/2000/svg" width="600" height="400" viewBox="0 0 600 400"><rect width="100%" height="100%" fill="#DDDDDD"/><path fill="#999999" d="M124.855 197.185h3.62q1.33 0 2.32-.34.99-.33 1.65-.95.66-.62.98-1.51.33-.89.33-1.99 0-1.04-.33-1.89-.32-.85-.97-1.44-.65-.59-1.64-.91-.99-.31-2.34-.31h-3.62v9.34Zm-4.84-13.09h8.46q2.61 0 4.52.61 1.91.62 3.15 1.71 1.24 1.1 1.84 2.63.61 1.53.61 3.35 0 1.89-.63 3.46-.63 1.58-1.89 2.71-1.26 1.14-3.16 1.77-1.9.63-4.44.63h-3.62v9.16h-4.84v-26.03Zm21.64-.72h4.44v26.75h-4.44v-26.75Zm18.64 21.98v-3.11q-1.92.09-3.24.33-1.31.24-2.1.62t-1.13.88q-.35.51-.35 1.1 0 1.17.7 1.67.69.51 1.8.51 1.37 0 2.37-.5 1-.49 1.95-1.5Zm-9.39-9.7-.79-1.42q3.18-2.92 7.66-2.92 1.62 0 2.9.53 1.28.53 2.16 1.48.89.94 1.34 2.26.46 1.31.46 2.88v11.66h-2.01q-.63 0-.98-.19-.34-.19-.54-.76l-.39-1.34q-.7.63-1.37 1.11-.67.48-1.39.8-.72.33-1.53.5-.82.17-1.81.17-1.17 0-2.16-.32-.99-.31-1.71-.94-.72-.63-1.12-1.57-.4-.93-.4-2.18 0-.7.24-1.39.23-.69.76-1.32.54-.63 1.38-1.19.85-.56 2.08-.97 1.23-.42 2.87-.68 1.64-.26 3.74-.31v-1.08q0-1.86-.79-2.75-.79-.89-2.28-.89-1.08 0-1.79.25t-1.26.57q-.54.31-.98.57-.44.25-.98.25-.47 0-.79-.25-.32-.24-.52-.56Zm32.31-1.71-1.17 1.62q-.2.25-.39.39-.19.15-.55.15-.34 0-.66-.21-.33-.21-.78-.47t-1.07-.47q-.62-.2-1.54-.2-1.17 0-2.05.42-.88.42-1.47 1.22-.58.79-.87 1.91-.29 1.13-.29 2.55 0 1.48.32 2.63.31 1.15.91 1.93.59.79 1.44 1.19.84.41 1.9.41 1.07 0 1.72-.27.66-.26 1.11-.57.45-.32.78-.58.34-.26.75-.26.54 0 .81.42l1.28 1.62q-.74.86-1.6 1.44-.87.59-1.79.94-.93.35-1.91.5-.98.14-1.95.14-1.71 0-3.23-.64-1.51-.64-2.64-1.86-1.14-1.23-1.79-3-.66-1.77-.66-4.04 0-2.03.58-3.77.59-1.74 1.72-3.01 1.14-1.27 2.81-1.99 1.68-.72 3.85-.72 2.07 0 3.63.67t2.8 1.91Zm6.46 4.82h8.39q0-.86-.24-1.63-.25-.76-.73-1.34-.49-.57-1.24-.91-.74-.33-1.73-.33-1.93 0-3.04 1.1-1.1 1.1-1.41 3.11Zm11.34 2.68h-11.43q.11 1.43.51 2.46.39 1.04 1.04 1.71.65.68 1.54 1.01.89.33 1.97.33t1.86-.25q.79-.25 1.37-.56.59-.3 1.03-.56.44-.25.85-.25.56 0 .83.42l1.28 1.62q-.74.86-1.66 1.44-.92.59-1.92.94-.99.35-2.03.5-1.03.14-2.01.14-1.92 0-3.58-.64-1.65-.64-2.88-1.89-1.22-1.25-1.92-3.1-.71-1.84-.71-4.27 0-1.89.62-3.56.61-1.66 1.75-2.89 1.14-1.24 2.79-1.96 1.65-.72 3.72-.72 1.74 0 3.22.56 1.48.56 2.54 1.63 1.06 1.07 1.66 2.63.61 1.56.61 3.55 0 1.01-.22 1.36-.22.35-.83.35Zm8.82-18.07v10.26q1.08-1.01 2.38-1.64 1.29-.63 3.04-.63 1.51 0 2.68.52 1.17.51 1.95 1.44.79.92 1.19 2.21.41 1.29.41 2.84v11.75h-4.45v-11.75q0-1.7-.77-2.62-.78-.93-2.36-.93-1.15 0-2.16.52-1.01.52-1.91 1.42v13.36h-4.44v-26.75h4.44Zm24.03 7.99q2.05 0 3.74.67 1.68.67 2.88 1.89 1.19 1.22 1.84 2.99.65 1.76.65 3.94 0 2.2-.65 3.96-.65 1.76-1.84 3.01-1.2 1.24-2.88 1.9-1.69.67-3.74.67-2.07 0-3.76-.67-1.69-.66-2.89-1.9-1.2-1.25-1.85-3.01-.66-1.76-.66-3.96 0-2.18.66-3.94.65-1.77 1.85-2.99 1.2-1.22 2.89-1.89 1.69-.67 3.76-.67Zm0 15.61q2.31 0 3.41-1.55 1.11-1.55 1.11-4.53 0-2.99-1.11-4.56-1.1-1.56-3.41-1.56-2.34 0-3.46 1.57-1.13 1.58-1.13 4.55 0 2.97 1.13 4.52 1.12 1.56 3.46 1.56Zm12.57-23.6h4.44v26.75h-4.44v-26.75Zm20.48 21.28v-8.28q-.76-.92-1.65-1.3-.89-.38-1.91-.38-1.01 0-1.82.38t-1.39 1.14q-.57.77-.88 1.95-.31 1.18-.31 2.78 0 1.62.26 2.74.27 1.13.75 1.84.49.71 1.19 1.03.7.31 1.57.31 1.38 0 2.35-.57.98-.58 1.84-1.64Zm0-21.28h4.45v26.75h-2.72q-.88 0-1.12-.81l-.38-1.78q-1.11 1.28-2.56 2.07-1.45.79-3.38.79-1.51 0-2.77-.63t-2.17-1.83q-.91-1.19-1.4-2.96-.5-1.76-.5-4.03 0-2.05.56-3.82.56-1.76 1.6-3.06 1.05-1.29 2.51-2.02 1.45-.73 3.27-.73 1.55 0 2.65.49 1.1.48 1.96 1.31v-9.74Zm12.35 15.39h8.39q0-.86-.25-1.63-.24-.76-.73-1.34-.48-.57-1.23-.91-.75-.33-1.74-.33-1.92 0-3.03 1.1-1.11 1.1-1.41 3.11Zm11.34 2.68h-11.43q.11 1.43.5 2.46.4 1.04 1.05 1.71.64.68 1.53 1.01.9.33 1.98.33t1.86-.25q.78-.25 1.37-.56.58-.3 1.02-.56.44-.25.86-.25.56 0 .83.42l1.27 1.62q-.73.86-1.65 1.44-.92.59-1.92.94-1 .35-2.03.5-1.04.14-2.01.14-1.93 0-3.58-.64-1.66-.64-2.88-1.89-1.23-1.25-1.93-3.1-.7-1.84-.7-4.27 0-1.89.61-3.56.61-1.66 1.76-2.89 1.14-1.24 2.79-1.96 1.64-.72 3.71-.72 1.75 0 3.23.56 1.47.56 2.53 1.63 1.07 1.07 1.67 2.63.6 1.56.6 3.55 0 1.01-.21 1.36-.22.35-.83.35Zm8.3-8.67.27 2.09q.86-1.66 2.05-2.61 1.19-.94 2.81-.94 1.27 0 2.05.56l-.29 3.33q-.09.32-.26.46-.17.13-.46.13-.27 0-.8-.09t-1.04-.09q-.73 0-1.31.22-.58.21-1.04.62-.45.4-.81.98-.35.58-.65 1.31v11.38h-4.45v-18.47h2.61q.69 0 .96.24.27.25.36.88Zm23.81-8.68v26.03h-4.86v-26.03h4.86Zm9.56 26.03h-4.45v-18.47h2.72q.86 0 1.13.81l.29 1.37q.49-.54 1.02-.99.53-.45 1.13-.77.61-.33 1.3-.52.69-.19 1.52-.19 1.75 0 2.87.95 1.13.94 1.68 2.51.44-.92 1.08-1.58.65-.65 1.43-1.07.77-.41 1.64-.61.88-.2 1.76-.2 1.53 0 2.72.47 1.18.47 1.99 1.37.81.9 1.24 2.2.42 1.29.42 2.97v11.75h-4.45v-11.75q0-1.77-.77-2.66-.77-.89-2.27-.89-.68 0-1.27.23-.58.24-1.02.68-.44.44-.7 1.11-.25.66-.25 1.53v11.75h-4.46v-11.75q0-1.86-.75-2.7-.75-.85-2.19-.85-.97 0-1.81.48-.83.47-1.55 1.3v13.52Zm35.46-4.77v-3.11q-1.93.09-3.24.33-1.32.24-2.11.62-.79.38-1.13.88-.34.51-.34 1.1 0 1.17.69 1.67.69.51 1.81.51 1.37 0 2.36-.5 1-.49 1.96-1.5Zm-9.4-9.7-.79-1.42q3.19-2.92 7.67-2.92 1.62 0 2.9.53 1.27.53 2.16 1.48.88.94 1.34 2.26.46 1.31.46 2.88v11.66h-2.02q-.63 0-.97-.19-.34-.19-.54-.76l-.4-1.34q-.7.63-1.37 1.11-.66.48-1.38.8-.72.33-1.54.5-.82.17-1.81.17-1.17 0-2.16-.32-.99-.31-1.71-.94-.72-.63-1.12-1.57-.39-.93-.39-2.18 0-.7.23-1.39.24-.69.77-1.32.53-.63 1.37-1.19.85-.56 2.08-.97 1.24-.42 2.87-.68 1.64-.26 3.75-.31v-1.08q0-1.86-.79-2.75-.8-.89-2.29-.89-1.08 0-1.79.25t-1.25.57q-.54.31-.98.57-.44.25-.98.25-.47 0-.8-.25-.32-.24-.52-.56Zm24.66 4.79q.83 0 1.44-.23.61-.22 1.02-.62.4-.4.61-.95.21-.56.21-1.23 0-1.37-.82-2.17-.82-.8-2.46-.8-1.64 0-2.46.8-.81.8-.81 2.17 0 .65.2 1.21.21.56.61.96.41.41 1.03.63.62.23 1.43.23Zm5.02 10.51q0-.54-.32-.88-.32-.35-.88-.54-.56-.18-1.31-.27-.74-.09-1.58-.14-.84-.04-1.73-.08t-1.74-.14q-.73.41-1.19.97-.46.56-.46 1.29 0 .49.24.91.24.43.77.73.54.31 1.38.48.85.17 2.07.17 1.24 0 2.14-.19.9-.19 1.49-.52.58-.33.85-.79t.27-1Zm-.88-18.67h5.31v1.66q0 .79-.95.97l-1.66.31q.38.95.38 2.08 0 1.37-.55 2.48-.55 1.11-1.52 1.88-.97.77-2.3 1.2-1.32.42-2.85.42-.54 0-1.04-.05-.51-.06-.99-.15-.87.52-.87 1.17 0 .56.52.82.51.26 1.36.37.84.11 1.92.13 1.08.03 2.22.12 1.13.09 2.21.32 1.08.22 1.93.71.84.48 1.35 1.32.52.84.52 2.15 0 1.23-.61 2.38-.6 1.15-1.74 2.05-1.14.9-2.81 1.45-1.66.55-3.79.55-2.09 0-3.63-.41-1.55-.4-2.58-1.08-1.02-.67-1.53-1.55-.5-.89-.5-1.84 0-1.3.78-2.17.78-.87 2.15-1.39-.74-.38-1.17-1.01-.43-.63-.43-1.66 0-.41.15-.85.16-.44.45-.88.3-.43.75-.82.45-.38 1.06-.69-1.4-.75-2.2-2.01-.8-1.26-.8-2.96 0-1.36.54-2.47.55-1.11 1.53-1.89.99-.78 2.33-1.2 1.34-.41 2.92-.41 1.19 0 2.23.24 1.05.24 1.91.71Zm11.63 6.48h8.39q0-.86-.25-1.63-.24-.76-.72-1.34-.49-.57-1.24-.91-.74-.33-1.73-.33-1.93 0-3.04 1.1-1.1 1.1-1.41 3.11Zm11.34 2.68h-11.43q.11 1.43.5 2.46.4 1.04 1.05 1.71.65.68 1.54 1.01.89.33 1.97.33t1.86-.25q.78-.25 1.37-.56.58-.3 1.02-.56.45-.25.86-.25.56 0 .83.42l1.28 1.62q-.74.86-1.66 1.44-.92.59-1.92.94-1 .35-2.03.5-1.04.14-2.01.14-1.92 0-3.58-.64-1.66-.64-2.88-1.89t-1.93-3.1q-.7-1.84-.7-4.27 0-1.89.61-3.56.62-1.66 1.76-2.89 1.14-1.24 2.79-1.96 1.65-.72 3.72-.72 1.74 0 3.22.56 1.47.56 2.54 1.63 1.06 1.07 1.66 2.63.6 1.56.6 3.55 0 1.01-.21 1.36-.22.35-.83.35Zm3.73 6.23q0-.56.2-1.06.21-.5.57-.86t.86-.58q.51-.22 1.08-.22.58 0 1.07.22.5.22.87.58t.58.86q.22.5.22 1.06 0 .58-.22 1.07-.21.5-.58.86t-.87.57q-.49.2-1.07.2-.57 0-1.08-.2-.5-.21-.86-.57t-.57-.86q-.2-.49-.2-1.07Zm13.64-10.62v8.28q.76.92 1.65 1.3.89.38 1.93.38 1.01 0 1.82-.38t1.38-1.15q.56-.78.87-1.96.31-1.18.31-2.78 0-1.62-.27-2.74-.26-1.13-.74-1.83-.49-.7-1.18-1.03-.69-.32-1.58-.32-1.38 0-2.35.58-.98.59-1.84 1.65Zm-.59-4.59.36 1.71q1.13-1.28 2.57-2.07 1.44-.79 3.38-.79 1.52 0 2.77.63t2.16 1.83q.91 1.19 1.4 2.95.5 1.75.5 4.02 0 2.07-.56 3.84-.56 1.76-1.6 3.06-1.03 1.29-2.5 2.02-1.46.73-3.28.73-1.55 0-2.65-.48-1.1-.47-1.96-1.32v7.56h-4.45v-24.5h2.72q.87 0 1.14.81Zm20.44 0 .31 1.46q.56-.56 1.18-1.04.62-.47 1.31-.81.7-.33 1.49-.52t1.73-.19q1.51 0 2.68.52 1.17.51 1.95 1.44.78.92 1.19 2.21.4 1.29.4 2.84v11.75h-4.44v-11.75q0-1.7-.78-2.62-.77-.93-2.35-.93-1.16 0-2.16.52-1.01.52-1.91 1.42v13.36h-4.45v-18.47h2.72q.86 0 1.13.81Zm23.21 7.98q.82 0 1.44-.23.61-.22 1.01-.62.41-.4.61-.95.21-.56.21-1.23 0-1.37-.82-2.17-.82-.8-2.45-.8-1.64 0-2.46.8-.82.8-.82 2.17 0 .65.21 1.21.2.56.61.96.4.41 1.02.63.63.23 1.44.23Zm5.02 10.51q0-.54-.33-.88-.32-.35-.88-.54-.56-.18-1.3-.27-.75-.09-1.59-.14-.83-.04-1.73-.08-.89-.04-1.73-.14-.74.41-1.2.97-.46.56-.46 1.29 0 .49.24.91.25.43.78.73.53.31 1.38.48.84.17 2.07.17 1.24 0 2.14-.19.9-.19 1.48-.52.59-.33.86-.79t.27-1Zm-.88-18.67h5.31v1.66q0 .79-.96.97l-1.65.31q.37.95.37 2.08 0 1.37-.55 2.48-.54 1.11-1.52 1.88-.97.77-2.29 1.2-1.32.42-2.85.42-.54 0-1.05-.05-.5-.06-.99-.15-.86.52-.86 1.17 0 .56.51.82.51.26 1.36.37.85.11 1.93.13 1.08.03 2.21.12t2.21.32q1.08.22 1.93.71.85.48 1.36 1.32.51.84.51 2.15 0 1.23-.6 2.38t-1.75 2.05q-1.14.9-2.81 1.45-1.66.55-3.78.55-2.09 0-3.64-.41-1.55-.4-2.57-1.08-1.03-.67-1.53-1.55-.51-.89-.51-1.84 0-1.3.78-2.17.79-.87 2.16-1.39-.74-.38-1.17-1.01-.44-.63-.44-1.66 0-.41.16-.85.15-.44.45-.88.29-.43.74-.82.45-.38 1.07-.69-1.41-.75-2.21-2.01-.8-1.26-.8-2.96 0-1.36.55-2.47t1.53-1.89q.98-.78 2.32-1.2 1.34-.41 2.93-.41 1.18 0 2.23.24 1.04.24 1.91.71Z"/></svg>