<svg width="43" height="33" viewBox="0 0 43 33" fill="none" xmlns="http://www.w3.org/2000/svg">
<path d="M0.5 2C0.5 1.17157 1.17157 0.5 2 0.5H39.6766C40.8072 0.5 41.5314 1.70337 41.002 2.70239L25.6334 31.7024C25.3734 32.1931 24.8634 32.5 24.308 32.5H2C1.17157 32.5 0.5 31.8284 0.5 31V2Z" stroke="#EFEFEF"/>
<path d="M18.5 18.0981C15.4624 18.0981 13 15.6357 13 12.5981C13 9.56058 15.4624 7.09814 18.5 7.09814C21.5376 7.09814 24 9.56058 24 12.5981C24 15.6357 21.5376 18.0981 18.5 18.0981Z" stroke="#FAAD3F" stroke-width="2" stroke-miterlimit="10"/>
<path d="M12.8483 24.9309L16.1516 18.0688" stroke="#FAAD3F" stroke-width="2" stroke-miterlimit="10" stroke-linecap="round"/>
</svg>
