<svg id="CONTENT_TYPE_TERM" class="post_type_icon term" xmlns="http://www.w3.org/2000/svg" viewBox="0 0 150 150">
		<g id="TERM">
			<path id="purple_book_outline" class="icon_purple" d="m127.55,112.36c-17.97.3-35.33,3.93-52.1,10.57V42.3c16.61-6.8,34.13-10.57,52.1-11.02v81.09Zm-58.74,10.42c-16.76-6.49-34.13-10.12-52.1-10.57V31.42c17.97.45,35.49,4.08,52.1,11.02v80.34Zm66.21-87.02c-.22,0-.96.04-1.12.04v-7.7c0-1.81-1.51-3.32-3.32-3.32-20.23,0-40.02,3.93-58.59,11.78-18.58-7.85-38.21-11.78-58.44-11.78-1.81,0-3.32,1.51-3.32,3.32v7.7c-.31,0-.8,0-1.12,0-1.81,0-3.32,1.36-3.32,3.17l2.21,77.69c0,1.81,1.51,3.32,3.32,3.32,23.11,0,38.03,3.58,59.47,12.64.45.15.91.3,1.36.3s.91,0,1.36-.3c21.3-9.06,36.22-13.74,59.32-13.74,1.81,0,3.32-1.36,3.32-3.32l2.21-76.58c0-1.81-1.51-3.21-3.32-3.21h0Z"/>
			<path id="pink_line" class="icon_pink" d="m87.98,57.54c.3,0,.6,0,.91-.15,8.61-2.57,17.37-4.38,26.27-5.29,1.81-.15,3.02-1.81,2.87-3.62-.15-1.81-1.81-3.02-3.62-2.87-9.21,1.06-18.42,2.87-27.34,5.59-1.66.45-2.72,2.27-2.27,4.08.45,1.36,1.82,2.27,3.17,2.27h0Z"/>
			<path id="yellow_line" class="icon_yellow" d="m114.56,61.47c-9.21,1.06-18.42,2.87-27.48,5.59-1.66.45-2.72,2.27-2.27,4.08.45,1.36,1.66,2.27,3.17,2.27.3,0,.6,0,.91-.15,8.61-2.57,17.37-4.38,26.27-5.29,1.81-.15,3.02-1.81,2.87-3.62-.15-1.81-1.66-3.17-3.47-2.87h0Z"/>
			<path id="blue_line" class="icon_blue" d="m114.56,77.18c-9.21,1.06-18.42,2.87-27.48,5.59-1.66.45-2.72,2.27-2.27,4.08.45,1.36,1.66,2.27,3.17,2.27.3,0,.6,0,.91-.15,8.61-2.57,17.37-4.38,26.27-5.29,1.81-.15,3.02-1.81,2.87-3.62-.15-1.66-1.66-3.01-3.47-2.87h0Z"/>
			<path id="purple_line" class="icon_purple" d="m114.56,93.03c-9.21,1.06-18.42,2.87-27.48,5.59-1.66.45-2.72,2.27-2.27,4.08.45,1.36,1.66,2.27,3.17,2.27.3,0,.6,0,.91-.15,8.61-2.57,17.37-4.38,26.27-5.29,1.81-.15,3.02-1.81,2.87-3.62-.15-1.81-1.66-3.01-3.47-2.87h0Z"/>
			<path id="letter" class="icon_grey" d="m43.69,67.26c1.76,4.83,3.29,9.22,4.83,13.39-1.1-.22-2.19-.44-3.29-.66-1.97-.44-3.95-.87-6.36-1.32,1.76-3.94,3.29-7.46,4.83-11.41h0Zm-16.24,28.53c2.42.87,5.26-.22,6.15-2.86.66-1.97,1.32-3.52,1.97-5.26,2.86.44,5.26,1.1,7.68,1.53,2.86.66,5.71,1.32,9.22,1.97.87,1.97,1.53,4.17,2.42,6.36.66,1.76,2.63,3.07,4.39,3.07.66,0,1.1-.22,1.76-.44,2.42-.87,3.52-3.73,2.63-6.15-5.92-14.93-8.78-23.27-15.14-41.26-.66-1.76-2.42-3.07-4.39-3.29-1.97,0-3.73,1.1-4.61,2.86-6.15,13.83-9.22,21.07-15.36,37.09-.45,2.65.87,5.28,3.29,6.38h0Z"/>
		</g>
	</svg>