<svg id="CONTENT_TYPE_PLAYLIST" class="post_type_icon playlist" xmlns="http://www.w3.org/2000/svg" viewBox="0 0 150 150">
		<g id="PLAYLIST">
			<path id="purple_outline" class="icon_purple" d="m130.14,126.56c0,1.18-.48,2.31-1.35,3.14-.87.83-2.04,1.3-3.26,1.3H24c-2.55,0-4.61-1.99-4.61-4.44v-62.17c0-2.45,2.07-4.44,4.61-4.44h101.53c1.22,0,2.4.47,3.26,1.3.87.83,1.35,1.96,1.35,3.14v62.17Zm-4.61-75.49H24c-7.64,0-13.84,5.97-13.84,13.32v62.17c0,7.35,6.2,13.32,13.84,13.32h101.53c7.64,0,13.84-5.97,13.84-13.32v-62.17c0-7.35-6.2-13.32-13.84-13.32Z"/>
			<path id="yellow_line" class="icon_yellow" d="m30.89,28.66c0-2.16,1.75-3.9,3.9-3.9h78.02c2.16,0,3.9,1.75,3.9,3.9s-1.75,3.9-3.9,3.9H34.8c-2.16,0-3.9-1.75-3.9-3.9Z"/>
			<path id="pink_line" class="icon_pink" d="m15.29,41.64c0-2.16,1.75-3.9,3.9-3.9h109.23c2.16,0,3.9,1.75,3.9,3.9s-1.75,3.9-3.9,3.9H19.19c-2.16,0-3.9-1.75-3.9-3.9Z"/>
			<path id="blue_line" class="icon_blue" d="m47.31,15.33c0-2.16,1.75-3.9,3.9-3.9h45.2c2.16,0,3.9,1.75,3.9,3.9s-1.75,3.9-3.9,3.9h-45.2c-2.16,0-3.9-1.75-3.9-3.9Z"/>
			<path id="playbutton" class="icon_grey" d="m89.72,90.91l-26.03-13.73c-3.69-1.91-8.55.52-8.55,4.34v27.28c0,4,4.85,6.43,8.54,4.34l26.03-13.73c3.7-1.74,3.7-6.61,0-8.52h0Z"/>
		</g>
	</svg>