<svg id="CONTENT_TYPE_EDUGUIDE" class="post_type_icon eduguide" xmlns="http://www.w3.org/2000/svg" viewBox="0 0 150 150">
	<g id="EDUGUIDE">
		<path id="book_outline_blue" class="icon_blue"  d="m91.77,114.2H13.35c-2.55,0-3.99-2.94-2.42-4.95l.91-1.17c.78-1.02,2.82-3.23,2.82-6.1,0-3.06-2.24-6.15-3.02-7.37l-.72-1.12c-1.31-2.04.16-4.73,2.58-4.73h78.26c5.22,0,9.46,4.23,9.46,9.46v6.53c0,5.22-4.23,9.46-9.46,9.46Zm-72.61-5.98h73.54c1.08,0,2.97-1.1,2.97-2.45v-8.59c0-1.35-1.88-2.45-2.97-2.45H18.87c1.58,2.47,2.43,4.35,2.43,7.39,0,2.68-.78,3.86-2.15,6.1Z"/>
		<path id="book_outline_yellow"  class="icon_yellow"  d="m111.34,133.95l-23.89-78.67c-.74-2.44,1.66-4.67,4.04-3.75l1.39.53c1.2.45,3.91,1.77,6.66.94,2.93-.88,5.24-3.92,6.18-5.02l.87-1.01c1.58-1.85,4.57-1.22,5.27,1.11l23.84,78.53c1.51,5-1.32,10.28-6.32,11.79l-6.25,1.89c-5,1.51-10.28-1.32-11.79-6.32Zm-16.6-75.19l23.23,74.1c.37,1.12,2.42,1.59,3.46,1.28l6.62-1.95c1.04-.31,2.87-2.01,2.32-3.39l-23.31-74.36c-2.84,2.35-3.94,3.32-6.29,4.01-2.07.61-3.1.41-6.04.31Z"/>
		<path id="purple_outline_apple" class="icon_purple" d="m71.26,28.85c4.47-3.93,6.64-9.68,6.14-15.35-.09-1.02-.71-1.91-1.65-2.35-5.74-2.67-12.71-2.29-18.27,1.6-2.51,1.75-4.43,4.02-5.75,6.57-2.89-3.79-7.29-6.51-12.47-7.33-2.08-.33-4.05,1.01-4.39,2.97s1.06,3.83,3.14,4.16c5.24.82,9.18,4.89,9.69,9.8-1.87-.87-3.82-1.47-5.81-1.47-13.33,0-24.15,10.82-24.15,24.16,0,7.44,3.58,20.03,9.16,28.9,4.13,6.58,9.48,10.99,14.99,10.99,2.97,0,5.85-1.32,8.5-2.91,1.33-.69,2.92-.69,4.26-.02,2.67,1.6,5.56,2.92,8.53,2.92,5.51,0,10.86-4.42,14.99-10.99,5.58-8.87,9.16-21.46,9.16-28.9,0-10.49-6.71-19.43-16.06-22.76Zm-9.99-10.69c2.72-1.91,6.05-2.32,9-1.41h0c-.16,3.09-1.68,6.07-4.41,7.98-2.72,1.91-6.05,2.32-9,1.41.16-3.09,1.68-6.07,4.41-7.98Zm8.99,56.67c-1.35,2.15-2.84,4-4.45,5.31-1.33,1.07-2.73,1.78-4.2,1.78-1.69,0-3.28-.91-4.8-1.82-.04-.02-.08-.05-.11-.07-2.61-1.38-5.73-1.38-8.34,0-.04.02-.08.04-.11.06-1.51.91-3.11,1.82-4.8,1.82-1.47,0-2.87-.7-4.2-1.78-1.61-1.31-3.11-3.17-4.45-5.31-4.26-6.78-7.06-16.37-7.06-22.06,0-8.68,7.04-15.72,15.72-15.72,1.69,0,3.28.91,4.8,1.82h0s.08.05.11.06c2.61,1.39,5.73,1.38,8.34,0,.04-.02.08-.04.11-.06,1.51-.91,3.11-1.82,4.8-1.82,8.68,0,15.72,7.04,15.72,15.72,0,5.68-2.8,15.28-7.06,22.06Z" />
		<path id="book_outline_pink" class="icon_pink"  d="m101.39,139.65H23.98c-2.55,0-3.99-2.94-2.42-4.95l.91-1.17c.78-1.02,2.82-3.23,2.82-6.1,0-3.06-2.24-6.15-3.02-7.37l-.72-1.12c-1.31-2.04.16-4.73,2.58-4.73h77.26c5.22,0,9.46,4.23,9.46,9.46v6.53c0,5.22-4.23,9.46-9.46,9.46Zm-71.14-5.51h71.62c1.07,0,2.94-1.18,2.94-2.62v-9.18c0-1.44-1.87-2.62-2.94-2.62H29.98c1.33,2.85,2.41,4.65,2.41,7.9,0,2.87-.55,4.29-2.13,6.52Z"/>
		<path id="grey_bookmark" class="icon_grey" d="m75.34,98.8h8.13c1.16,0,2.1,1.46,2.1,3.27v16.13c0,.86-.62,1.36-1.07.87l-5.09-5.61-5.09,5.61c-.45.5-1.07,0-1.07-.87v-16.13c0-1.81.94-3.27,2.1-3.27Z"/>
	</g>
</svg>