<svg id="CONTENT_TYPE_VIDEO" class="post_type_icon video" xmlns="http://www.w3.org/2000/svg" viewBox="0 0 150 150">
		<g id="VIDEO">
			<path id="yellow_line" class="icon_yellow" d="m62.08,28.89l8.56-2.18,7.01,27.57-8.56,2.18-7.01-27.57Z"/>
			<path id="blue_line" class="icon_blue" d="m87.57,20.92l8.56-2.18,7.01,27.57-8.56,2.18-7.01-27.57Z"/>
			<path id="pink_line" class="icon_pink" d="m36.15,34.96l8.56-2.18,7,27.57-8.56,2.18-7-27.57Z"/>
			<path id="purple_outline" class="icon_purple" d="m125.85,70.37H32.19l89.95-22.88c4.39-1.13,7.03-5.59,5.92-9.98l-4.73-18.68c-.76-3.01-2.69-5.6-5.36-7.19-2.67-1.59-5.86-2.05-8.87-1.29L20.5,32.87c-3.04.77-5.65,2.73-7.23,5.43-1.59,2.71-2.02,5.94-1.2,8.97l7.29,26.37h0v52.7c0,7.32,5.94,13.25,13.25,13.25h87.95c3.6.07,7.07-1.32,9.62-3.87,2.55-2.54,3.95-6.01,3.89-9.61v-47.53c0-4.54-3.68-8.22-8.22-8.22ZM19.71,41.34c.64-1.18,2.22-1.71,2.96-1.9,76.63-19.52,86.39-22.01,88.65-22.62,2.03-.55,4.01.68,4.67,4.17l4.42,19.11-95.39,24.9-6.15-20.1c-.51-1.37.49-2.88.85-3.56Zm106.26,84.78c0,1.17-.46,3.3-1.29,4.13s-2.86,2.13-4.13,2.13H32.42c-1.6,0-3.3-1.3-4.13-2.13s-1.29-2.95-1.29-4.13v-47.91h98.96v47.91Z"/>
			<path id="playbutton" class="icon_grey" d="m91.29,101.18l-22.32-11.77c-3.16-1.64-7.33.45-7.33,3.73v23.4c0,3.43,4.16,5.51,7.32,3.73l22.32-11.77c3.17-1.49,3.17-5.66,0-7.31h0Z"/>
		</g>
	</svg>