<svg id="CONTENT_TYPE_POST" class="post_type_icon post" xmlns="http://www.w3.org/2000/svg" viewBox="0 0 150 150">
	<g id="POST">
		<path id="purple_outline" class="icon_purple" d="m117.7,15.33c1.28.33,2.55.75,3.77,1.24,5.45,2.18,8.95,7.54,8.75,13.4.1,14.26,0,28.49,0,42.78,0,.27,0,.56-.09.91-3.19-.66-6.51-.26-9.47,1.13V30.76H24.99c0,.4-.07,4.67-.07,5.08v79.11c0,3.85,1.82,5.67,5.64,5.67h47.08c-.91,3.12-1.79,6.19-2.71,9.13-.19.27-.5.44-.83.45H30.39c-6.52.28-12.41-3.87-14.36-10.09-.25-.8-.45-1.62-.67-2.48V27.93c.09-.21.17-.42.24-.63.75-4.73,3.86-8.75,8.26-10.66,1.35-.53,2.73-.97,4.14-1.31h89.69Z"/>
		<path id="yellow_line" class="icon_yellow" d="m106.24,74.66h0c0,2.59-2.1,4.69-4.69,4.69h-57.51c-2.59,0-4.69-2.1-4.69-4.69h0c0-2.59,2.1-4.69,4.69-4.69h57.51c2.59,0,4.69,2.1,4.69,4.69Z"/>
		<path id="pink_line" class="icon_pink" d="m106.22,52.68h0c0,2.6-2.1,4.7-4.7,4.7h-57.49c-2.6,0-4.7-2.1-4.7-4.7h0c0-2.6,2.1-4.7,4.7-4.7h57.49c2.6,0,4.7,2.1,4.7,4.7Z" fill="#d95a6b" stroke-width="0"/>
		<path id="blue_line" class="icon_blue" d="m101.75,92c-4.42,3.11-8.67,6.19-13.06,9.14-.49.25-1.04.37-1.59.35l-42.75.31c-2.78.02-5.05-2.23-5.05-5.01v-.17c0-2.55,2.07-4.62,4.62-4.62h57.83Z" />
		<g id="pencil">
			<path class="icon_grey" d="m112.24,95l15.17,15.04c-.24.26-.51.56-.78.83-7.43,7.43-14.9,14.87-22.4,22.3h0c-.57.57-1.27.99-2.03,1.24-5.29,1.61-10.6,3.16-15.93,4.68h0c-.61.19-1.26.22-1.88.1-.51-.15-.93-.49-1.19-.96-.25-.47-.3-1.02-.15-1.52,1.65-5.78,3.33-11.52,5.04-17.21.15-.42.4-.8.72-1.1,7.73-7.79,15.46-15.53,23.19-23.24.07-.07.15-.13.25-.16h0Zm-11.51,35.33c-.45-2.37-.87-4.63-1.33-6.88h0c-.07-.3-.28-.54-.56-.67-2.26-.51-4.56-.97-6.89-1.44-.84,2.87-1.57,5.65-2.48,8.36h0c-.32.99.01,2.08.83,2.71.58.64,1.54.78,2.28.33l8.14-2.43Z" /><path class="icon_grey"  d="m132,104.53l-14.32-14.14c2.12-2.26,4.1-4.61,6.35-6.64,1.81-1.42,4.38-1.29,6.03.31,2.7,2.55,5.34,5.18,7.88,7.89,1.7,1.88,1.7,4.75,0,6.64-.26.31-.54.61-.83.89l-5.12,5.04Z"/>
		</g>
	</g>
</svg>