<?xml version="1.0" encoding="utf-8"?>
<!-- Generator: Adobe Illustrator 28.0.0, SVG Export Plug-In . SVG Version: 6.00 Build 0)  -->
<svg version="1.1" id="Layer_1" xmlns="http://www.w3.org/2000/svg" xmlns:xlink="http://www.w3.org/1999/xlink" x="0px" y="0px"
	 viewBox="0 0 30 30" style="enable-background:new 0 0 30 30;" xml:space="preserve">
<path d="M18.3,16.8c0-0.9-0.3-1.7-1-2.3s-1.4-1-2.3-1s-1.7,0.3-2.3,1c-0.6,0.6-1,1.4-1,2.3c0,0.9,0.3,1.7,1,2.3c0.6,0.6,1.4,1,2.3,1
	s1.7-0.3,2.3-1C18,18.5,18.3,17.7,18.3,16.8z M20.1,16.8c0,1.4-0.5,2.6-1.5,3.6s-2.2,1.5-3.6,1.5c-1.4,0-2.6-0.5-3.6-1.5
	s-1.5-2.2-1.5-3.6s0.5-2.6,1.5-3.6s2.2-1.5,3.6-1.5c1.4,0,2.6,0.5,3.6,1.5S20.1,15.4,20.1,16.8z M21.5,11.5c0,0.3-0.1,0.6-0.3,0.8
	c-0.2,0.2-0.5,0.3-0.8,0.3c-0.3,0-0.6-0.1-0.8-0.3c-0.2-0.2-0.3-0.5-0.3-0.8s0.1-0.6,0.3-0.8c0.2-0.2,0.5-0.3,0.8-0.3
	c0.3,0,0.6,0.1,0.8,0.3C21.4,10.9,21.5,11.1,21.5,11.5z M15,8.6c-0.1,0-0.4,0-1,0c-0.6,0-1.1,0-1.4,0c-0.3,0-0.7,0-1.2,0
	c-0.5,0-1,0.1-1.3,0.1C9.7,8.9,9.4,8.9,9.2,9C8.7,9.2,8.3,9.5,8,9.8c-0.3,0.3-0.6,0.7-0.7,1.1c-0.1,0.3-0.2,0.6-0.2,0.9
	c-0.1,0.4-0.1,0.8-0.1,1.3c0,0.5,0,0.9,0,1.2c0,0.3,0,0.8,0,1.4s0,0.9,0,1s0,0.4,0,1c0,0.6,0,1.1,0,1.4s0,0.7,0,1.2
	c0,0.5,0.1,1,0.1,1.3c0.1,0.4,0.1,0.7,0.2,0.9C7.4,23,7.7,23.4,8,23.8s0.7,0.6,1.1,0.7c0.3,0.1,0.6,0.2,0.9,0.2
	c0.4,0.1,0.8,0.1,1.3,0.1c0.5,0,0.9,0,1.2,0c0.3,0,0.8,0,1.4,0c0.6,0,0.9,0,1,0c0.1,0,0.4,0,1,0c0.6,0,1.1,0,1.4,0s0.7,0,1.2,0
	c0.5,0,1-0.1,1.3-0.1c0.4-0.1,0.7-0.1,0.9-0.2c0.4-0.2,0.8-0.4,1.1-0.7c0.3-0.3,0.6-0.7,0.7-1.1c0.1-0.2,0.2-0.6,0.2-0.9
	c0.1-0.4,0.1-0.8,0.1-1.3c0-0.5,0-0.9,0-1.2c0-0.3,0-0.8,0-1.4c0-0.6,0-0.9,0-1s0-0.4,0-1c0-0.6,0-1.1,0-1.4s0-0.7,0-1.2
	c0-0.5-0.1-1-0.1-1.3c-0.1-0.4-0.1-0.7-0.2-0.9c-0.2-0.4-0.4-0.8-0.7-1.1c-0.3-0.3-0.7-0.6-1.1-0.7c-0.2-0.1-0.6-0.2-0.9-0.2
	s-0.8-0.1-1.3-0.1c-0.5,0-0.9,0-1.2,0c-0.3,0-0.8,0-1.4,0C15.4,8.6,15.1,8.6,15,8.6z M24.9,16.8c0,2,0,3.3-0.1,4.1
	c-0.1,1.8-0.6,3.2-1.6,4.2c-1,1-2.4,1.5-4.2,1.6c-0.8,0-2.1,0.1-4.1,0.1s-3.3,0-4.1-0.1C9.1,26.5,7.7,26,6.8,25
	c-1-1-1.5-2.4-1.6-4.2c0-0.8-0.1-2.1-0.1-4.1s0-3.3,0.1-4.1c0.1-1.8,0.6-3.2,1.6-4.2S9.1,7,10.9,6.9c0.8,0,2.1-0.1,4.1-0.1
	s3.3,0,4.1,0.1c1.8,0.1,3.2,0.6,4.2,1.6s1.5,2.4,1.6,4.2C24.9,13.4,24.9,14.8,24.9,16.8z"/>
<path d="M9.5,5.9L9,5.8c0,0,0.4-2.4,1.2-3.2c0.9-0.8,2.2-1,3-1c0.8,0,2.3,0.7,3.4,1.2s1.9,1,2.4,1c0.5,0,1.1,0,1.5-1
	c0.5-1,0.6-1.3,0.6-1.3l0.6,0.1c0,0,0.1,1.5-0.6,2.5c-0.7,1-1.9,2-3.9,1.7c-2-0.3-2.6-1.3-4.4-1.8S11.3,3.6,11,3.7
	c-0.3,0.1-0.8,0.7-1,1.6C9.7,6.1,9.5,5.9,9.5,5.9z"/>
</svg>
