<?xml version="1.0" encoding="UTF-8"?>
<svg xmlns="http://www.w3.org/2000/svg" xmlns:xlink="http://www.w3.org/1999/xlink" version="1.1" viewBox="0 0 805 805">
  <defs>
    <style>
      .cls-1 {
        fill: #292929;
      }

      .cls-2 {
        fill: url(#linear-gradient-2);
      }

      .cls-3 {
        fill: url(#linear-gradient);
      }

      .cls-4 {
        fill: #fff;
      }
    </style>
    <linearGradient id="linear-gradient" x1="589.1" y1="494.4" x2="589.1" y2="312.4" gradientTransform="translate(0 806) scale(1 -1)" gradientUnits="userSpaceOnUse">
      <stop offset="0" stop-color="#53accd"/>
      <stop offset="1" stop-color="#2a5667"/>
    </linearGradient>
    <linearGradient id="linear-gradient-2" x1="216.2" y1="494.4" x2="216.2" y2="312.4" gradientTransform="translate(0 806) scale(1 -1)" gradientUnits="userSpaceOnUse">
      <stop offset="0" stop-color="#80c7e2"/>
      <stop offset="1" stop-color="#c0dfeb"/>
    </linearGradient>
  </defs>
  <!-- Generator: Adobe Illustrator 28.7.1, SVG Export Plug-In . SVG Version: 1.2.0 Build 142)  -->
  <g>
    <g id="Layer_1">
      <path class="cls-3" d="M433.6,311.6h339c17.7,0,32,14.3,32,32v118.1c0,17.7-14.3,32-32,32h-399l60-182.1Z"/>
      <path class="cls-2" d="M.7,343.6c0-17.7,14.3-32,32-32h399l-60,182.1H32.7c-17.7,0-32-14.3-32-32v-118.1Z"/>
      <path class="cls-4" d="M495.6,391.6c2.4,0,4.4.5,6.2,1.4,1.8,1,3.2,2.2,4.1,3.8v-4.7h10.3v33.4c0,3.1-.6,5.9-1.9,8.3-1.2,2.5-3.1,4.5-5.6,6-2.5,1.5-5.6,2.2-9.3,2.2s-9-1.2-12.1-3.5c-3.1-2.3-4.8-5.5-5.3-9.5h10.1c.3,1.3,1.1,2.3,2.3,3,1.2.8,2.7,1.1,4.4,1.1s3.8-.6,5-1.9c1.3-1.2,1.9-3.1,1.9-5.8v-4.7c-1,1.6-2.4,2.8-4.1,3.8-1.8,1-3.8,1.4-6.2,1.4s-5.3-.7-7.5-2.1c-2.2-1.4-4-3.5-5.3-6.1-1.3-2.6-1.9-5.7-1.9-9.1s.6-6.5,1.9-9.1c1.3-2.6,3.1-4.6,5.3-6,2.2-1.4,4.7-2.1,7.5-2.1ZM505.9,408.8c0-2.6-.7-4.6-2.2-6.1-1.4-1.5-3.1-2.2-5.2-2.2s-3.8.7-5.2,2.2c-1.4,1.4-2.1,3.4-2.1,6s.7,4.6,2.1,6.1c1.4,1.5,3.2,2.2,5.2,2.2s3.8-.7,5.2-2.2c1.4-1.5,2.2-3.5,2.2-6.1ZM533.9,397.6c1.2-1.8,2.7-3.3,4.5-4.3,1.8-1.1,3.8-1.6,6-1.6v10.9h-2.8c-2.6,0-4.5.6-5.8,1.7-1.3,1.1-1.9,3-1.9,5.8v15.5h-10.3v-33.5h10.3v5.6ZM547.2,408.7c0-3.4.6-6.5,1.9-9.1,1.3-2.6,3.1-4.6,5.3-6,2.2-1.4,4.7-2.1,7.5-2.1s4.4.5,6.2,1.4c1.8,1,3.2,2.2,4.1,3.8v-4.7h10.3v33.5h-10.3v-4.7c-1,1.6-2.4,2.8-4.2,3.8-1.8,1-3.8,1.4-6.2,1.4s-5.2-.7-7.4-2.1c-2.2-1.4-4-3.5-5.3-6.1-1.3-2.6-1.9-5.7-1.9-9.1ZM572.3,408.8c0-2.6-.7-4.6-2.2-6.1-1.4-1.5-3.1-2.2-5.2-2.2s-3.8.7-5.2,2.2c-1.4,1.4-2.1,3.4-2.1,6s.7,4.6,2.1,6.1c1.4,1.5,3.2,2.2,5.2,2.2s3.8-.7,5.2-2.2c1.4-1.5,2.2-3.5,2.2-6.1ZM588,408.7c0-3.4.6-6.5,1.9-9.1,1.3-2.6,3.1-4.6,5.3-6,2.2-1.4,4.7-2.1,7.5-2.1s4.2.5,6,1.4c1.8.9,3.3,2.2,4.3,3.7v-15.5h10.3v44.4h-10.3v-4.8c-1,1.6-2.3,2.9-4.1,3.8-1.8,1-3.8,1.4-6.2,1.4s-5.3-.7-7.5-2.1c-2.2-1.4-4-3.5-5.3-6.1-1.3-2.6-1.9-5.7-1.9-9.1ZM613,408.8c0-2.6-.7-4.6-2.2-6.1-1.4-1.5-3.1-2.2-5.2-2.2s-3.8.7-5.2,2.2c-1.4,1.4-2.1,3.4-2.1,6s.7,4.6,2.1,6.1c1.4,1.5,3.2,2.2,5.2,2.2s3.8-.7,5.2-2.2c1.4-1.5,2.2-3.5,2.2-6.1ZM635.9,388.6c-1.8,0-3.3-.5-4.4-1.6-1.1-1.1-1.7-2.4-1.7-4s.6-2.9,1.7-4c1.2-1.1,2.6-1.6,4.4-1.6s3.2.5,4.3,1.6c1.2,1,1.7,2.4,1.7,4s-.6,2.9-1.7,4c-1.1,1-2.6,1.6-4.3,1.6ZM641,392.1v33.5h-10.3v-33.5h10.3ZM680,408.3c0,1,0,2-.2,3h-23.2c.2,2.1.8,3.7,2,4.8,1.2,1.1,2.7,1.6,4.4,1.6,2.6,0,4.3-1.1,5.3-3.2h10.9c-.6,2.2-1.6,4.2-3.1,5.9-1.4,1.8-3.3,3.1-5.5,4.1s-4.7,1.5-7.4,1.5-6.2-.7-8.8-2.1-4.6-3.4-6-6-2.2-5.6-2.2-9.1.7-6.5,2.1-9.1c1.4-2.6,3.4-4.6,6-6,2.6-1.4,5.5-2.1,8.8-2.1s6.1.7,8.6,2,4.5,3.3,5.9,5.8c1.4,2.5,2.2,5.5,2.2,8.8ZM669.5,405.6c0-1.8-.6-3.2-1.8-4.2s-2.7-1.6-4.5-1.6-3.2.5-4.4,1.5c-1.2,1-1.9,2.4-2.2,4.3h12.8ZM705.8,391.7c3.9,0,7,1.3,9.4,3.8,2.4,2.5,3.5,6,3.5,10.4v19.6h-10.2v-18.2c0-2.2-.6-4-1.7-5.2-1.2-1.2-2.7-1.9-4.7-1.9s-3.5.6-4.7,1.9c-1.2,1.2-1.7,3-1.7,5.2v18.2h-10.3v-33.5h10.3v4.4c1-1.5,2.4-2.6,4.2-3.5,1.8-.9,3.7-1.3,5.9-1.3ZM744.5,416.8v8.7h-5.2c-3.7,0-6.6-.9-8.7-2.7-2.1-1.8-3.1-4.8-3.1-8.9v-13.3h-4.1v-8.5h4.1v-8.2h10.3v8.2h6.7v8.5h-6.7v13.4c0,1,.2,1.7.7,2.2.5.4,1.3.7,2.4.7h3.7Z"/>
      <path class="cls-1" d="M164.9,403.9c2.4.5,4.4,1.7,5.9,3.7,1.5,1.9,2.2,4,2.2,6.5,0,3.5-1.2,6.3-3.7,8.4-2.4,2-5.9,3.1-10.3,3.1h-19.6v-42.1h19c4.3,0,7.6,1,10,2.9,2.4,2,3.7,4.6,3.7,8s-.7,4.5-2,6.2c-1.3,1.6-3,2.8-5.2,3.4ZM149.7,400.5h6.7c1.7,0,3-.4,3.8-1.1.9-.8,1.4-1.9,1.4-3.3s-.5-2.5-1.4-3.3c-.9-.8-2.2-1.1-3.8-1.1h-6.7v8.8ZM157.2,417.3c1.7,0,3-.4,4-1.1,1-.8,1.4-1.9,1.4-3.4s-.5-2.6-1.5-3.5c-1-.8-2.3-1.3-4-1.3h-7.4v9.3h7.6ZM189.2,417.6h13.4v7.9h-23.7v-42.1h10.3v34.2ZM217.6,383.4v25.2c0,2.5.6,4.5,1.9,5.8,1.2,1.4,3.1,2,5.5,2s4.2-.7,5.5-2c1.3-1.4,1.9-3.3,1.9-5.8v-25.2h10.3v25.1c0,3.8-.8,6.9-2.4,9.5s-3.8,4.6-6.5,5.9c-2.7,1.3-5.7,2-9,2s-6.3-.6-8.9-1.9c-2.6-1.3-4.7-3.3-6.2-5.9-1.5-2.6-2.3-5.8-2.3-9.6v-25.1h10.3ZM260.1,391.6v8.5h13.7v7.9h-13.7v9.2h15.5v8.2h-25.8v-42.1h25.8v8.2h-15.5Z"/>
    </g>
  </g>
</svg>