<?xml version="1.0" encoding="UTF-8"?>
<svg xmlns="http://www.w3.org/2000/svg" version="1.1" viewBox="0 0 959 959">
  <defs>
    <style>
      .cls-1 {
        fill: #292929;
      }

      .cls-2 {
        fill: #fcb44f;
      }

      .cls-3 {
        fill: #fff;
      }

      .cls-4 {
        font-family: Poppins-Black, Poppins;
        font-size: 60px;
        font-weight: 800;
      }

      .cls-5 {
        fill: #7b623d;
      }
    </style>
  </defs>
  <!-- Generator: Adobe Illustrator 28.7.1, SVG Export Plug-In . SVG Version: 1.2.0 Build 142)  -->
  <g>
    <g id="Layer_1">
      <path class="cls-5" d="M510.6,390.2h416.1c17.7,0,32,14.3,32,32v114.5c0,17.7-14.3,32-32,32h-476.1l60-178.5Z"/>
      <path class="cls-2" d="M.9,422.2c0-17.7,14.3-32,32-32h476.1l-60,178.5H32.9c-17.7,0-32-14.3-32-32v-114.5Z"/>
      <path class="cls-3" d="M544.4,484.2c0-3.4.6-6.5,1.9-9.1,1.3-2.6,3.1-4.6,5.3-6s4.7-2.1,7.5-2.1,4.2.5,6,1.4c1.8.9,3.3,2.2,4.3,3.7v-15.5h10.3v44.4h-10.3v-4.8c-1,1.6-2.3,2.9-4.1,3.8-1.8,1-3.8,1.4-6.2,1.4s-5.3-.7-7.5-2.1c-2.2-1.4-4-3.5-5.3-6.1-1.3-2.6-1.9-5.7-1.9-9.1ZM569.5,484.2c0-2.6-.7-4.6-2.2-6.1-1.4-1.5-3.1-2.2-5.2-2.2s-3.8.7-5.2,2.2c-1.4,1.4-2.1,3.4-2.1,6s.7,4.6,2.1,6.1c1.4,1.5,3.2,2.2,5.2,2.2s3.8-.7,5.2-2.2c1.4-1.5,2.2-3.5,2.2-6.1ZM585.1,484.2c0-3.4.6-6.5,1.9-9.1,1.3-2.6,3.1-4.6,5.3-6s4.7-2.1,7.5-2.1,4.4.5,6.2,1.4c1.8,1,3.2,2.2,4.1,3.8v-4.7h10.3v33.5h-10.3v-4.7c-1,1.6-2.4,2.8-4.2,3.8-1.8,1-3.8,1.4-6.2,1.4s-5.2-.7-7.4-2.1c-2.2-1.4-4-3.5-5.3-6.1-1.3-2.6-1.9-5.7-1.9-9.1ZM610.2,484.2c0-2.6-.7-4.6-2.2-6.1-1.4-1.5-3.1-2.2-5.2-2.2s-3.8.7-5.2,2.2c-1.4,1.4-2.1,3.4-2.1,6s.7,4.6,2.1,6.1c1.4,1.5,3.2,2.2,5.2,2.2s3.8-.7,5.2-2.2c1.4-1.5,2.2-3.5,2.2-6.1ZM638.2,473.1c1.2-1.8,2.7-3.3,4.5-4.3,1.8-1.1,3.8-1.6,6-1.6v10.9h-2.8c-2.6,0-4.5.6-5.8,1.7-1.3,1.1-1.9,3-1.9,5.8v15.5h-10.3v-33.5h10.3v5.6ZM674,501l-10.2-14v14h-10.3v-44.4h10.3v24.5l10.1-13.6h12.7l-13.9,16.8,14,16.7h-12.7ZM746.1,467.1c4.2,0,7.5,1.3,9.9,3.8,2.5,2.5,3.7,6,3.7,10.5v19.6h-10.2v-18.2c0-2.2-.6-3.8-1.7-5-1.1-1.2-2.7-1.8-4.7-1.8s-3.6.6-4.7,1.8c-1.1,1.2-1.7,2.8-1.7,5v18.2h-10.2v-18.2c0-2.2-.6-3.8-1.7-5-1.1-1.2-2.7-1.8-4.7-1.8s-3.6.6-4.7,1.8c-1.1,1.2-1.7,2.8-1.7,5v18.2h-10.3v-33.5h10.3v4.2c1-1.4,2.4-2.5,4.1-3.3,1.7-.8,3.6-1.3,5.7-1.3s4.8.5,6.7,1.6c2,1.1,3.6,2.6,4.7,4.6,1.2-1.8,2.7-3.3,4.7-4.5,2-1.2,4.2-1.7,6.5-1.7ZM782.1,501.4c-3.3,0-6.2-.7-8.9-2.1-2.6-1.4-4.7-3.4-6.2-6-1.5-2.6-2.2-5.6-2.2-9.1s.8-6.5,2.3-9.1c1.5-2.6,3.6-4.7,6.2-6.1,2.6-1.4,5.6-2.1,8.9-2.1s6.2.7,8.9,2.1c2.6,1.4,4.7,3.4,6.2,6.1,1.5,2.6,2.3,5.6,2.3,9.1s-.8,6.5-2.3,9.1c-1.5,2.6-3.6,4.6-6.3,6-2.6,1.4-5.6,2.1-8.9,2.1ZM782.1,492.6c2,0,3.6-.7,5-2.2,1.4-1.4,2.1-3.5,2.1-6.2s-.7-4.7-2-6.2c-1.3-1.4-3-2.2-4.9-2.2s-3.7.7-5,2.2c-1.3,1.4-2,3.5-2,6.2s.6,4.7,1.9,6.2c1.3,1.4,3,2.2,4.9,2.2ZM803.1,484.2c0-3.4.6-6.5,1.9-9.1,1.3-2.6,3.1-4.6,5.3-6s4.7-2.1,7.5-2.1,4.2.5,6,1.4c1.8.9,3.3,2.2,4.3,3.7v-15.5h10.3v44.4h-10.3v-4.8c-1,1.6-2.3,2.9-4.1,3.8-1.8,1-3.8,1.4-6.2,1.4s-5.3-.7-7.5-2.1c-2.2-1.4-4-3.5-5.3-6.1-1.3-2.6-1.9-5.7-1.9-9.1ZM828.1,484.2c0-2.6-.7-4.6-2.2-6.1-1.4-1.5-3.1-2.2-5.2-2.2s-3.8.7-5.2,2.2c-1.4,1.4-2.1,3.4-2.1,6s.7,4.6,2.1,6.1c1.4,1.5,3.2,2.2,5.2,2.2s3.8-.7,5.2-2.2c1.4-1.5,2.2-3.5,2.2-6.1ZM877.4,483.7c0,1,0,2-.2,3h-23.2c.2,2.1.8,3.7,2,4.8,1.2,1.1,2.7,1.6,4.4,1.6,2.6,0,4.3-1.1,5.3-3.2h10.9c-.6,2.2-1.6,4.2-3.1,5.9-1.4,1.8-3.3,3.1-5.5,4.1-2.2,1-4.7,1.5-7.4,1.5s-6.2-.7-8.8-2.1-4.6-3.4-6-6-2.2-5.6-2.2-9.1.7-6.5,2.1-9.1c1.4-2.6,3.4-4.6,6-6s5.5-2.1,8.8-2.1,6.1.7,8.6,2c2.5,1.4,4.5,3.3,5.9,5.8,1.4,2.5,2.2,5.5,2.2,8.8ZM866.9,481c0-1.8-.6-3.2-1.8-4.2-1.2-1-2.7-1.6-4.5-1.6s-3.2.5-4.4,1.5c-1.2,1-1.9,2.4-2.2,4.3h12.8Z"/>
      <path class="cls-1" d="M84.6,456.6v44.4h-10.3v-44.4h10.3ZM97.2,464c-1.8,0-3.3-.5-4.4-1.6-1.1-1.1-1.7-2.4-1.7-4s.6-2.9,1.7-4c1.2-1.1,2.6-1.6,4.4-1.6s3.2.5,4.3,1.6c1.2,1,1.7,2.4,1.7,4s-.6,2.9-1.7,4c-1.1,1-2.6,1.6-4.3,1.6ZM102.3,467.5v33.5h-10.3v-33.5h10.3ZM122.5,467c2.4,0,4.4.5,6.2,1.4,1.8,1,3.2,2.2,4.1,3.8v-4.7h10.3v33.4c0,3.1-.6,5.9-1.9,8.3-1.2,2.5-3.1,4.5-5.6,6-2.5,1.5-5.6,2.2-9.3,2.2s-9-1.2-12.1-3.5c-3.1-2.3-4.8-5.5-5.3-9.5h10.1c.3,1.3,1.1,2.3,2.3,3,1.2.8,2.7,1.1,4.4,1.1s3.8-.6,5-1.9c1.3-1.2,1.9-3.1,1.9-5.8v-4.7c-1,1.6-2.4,2.8-4.1,3.8-1.8,1-3.8,1.4-6.2,1.4s-5.3-.7-7.5-2.1c-2.2-1.4-4-3.5-5.3-6.1-1.3-2.6-1.9-5.7-1.9-9.1s.6-6.5,1.9-9.1c1.3-2.6,3.1-4.6,5.3-6,2.2-1.4,4.7-2.1,7.5-2.1ZM132.8,484.2c0-2.6-.7-4.6-2.2-6.1-1.4-1.5-3.1-2.2-5.2-2.2s-3.8.7-5.2,2.2c-1.4,1.4-2.1,3.4-2.1,6s.7,4.6,2.1,6.1c1.4,1.5,3.2,2.2,5.2,2.2s3.8-.7,5.2-2.2c1.4-1.5,2.2-3.5,2.2-6.1ZM171.1,467.1c3.8,0,6.9,1.3,9.2,3.8,2.3,2.5,3.5,6,3.5,10.4v19.6h-10.2v-18.2c0-2.2-.6-4-1.7-5.2-1.2-1.2-2.7-1.9-4.7-1.9s-3.5.6-4.7,1.9c-1.2,1.2-1.7,3-1.7,5.2v18.2h-10.3v-44.4h10.3v15.4c1-1.5,2.5-2.7,4.3-3.5,1.8-.9,3.8-1.3,6.1-1.3ZM209.6,492.3v8.7h-5.2c-3.7,0-6.6-.9-8.7-2.7-2.1-1.8-3.1-4.8-3.1-8.9v-13.3h-4.1v-8.5h4.1v-8.2h10.3v8.2h6.7v8.5h-6.7v13.4c0,1,.2,1.7.7,2.2s1.3.7,2.4.7h3.7ZM270.7,467.1c4.2,0,7.5,1.3,9.9,3.8,2.5,2.5,3.7,6,3.7,10.5v19.6h-10.2v-18.2c0-2.2-.6-3.8-1.7-5-1.1-1.2-2.7-1.8-4.7-1.8s-3.6.6-4.7,1.8c-1.1,1.2-1.7,2.8-1.7,5v18.2h-10.2v-18.2c0-2.2-.6-3.8-1.7-5-1.1-1.2-2.7-1.8-4.7-1.8s-3.6.6-4.7,1.8c-1.1,1.2-1.7,2.8-1.7,5v18.2h-10.3v-33.5h10.3v4.2c1-1.4,2.4-2.5,4.1-3.3,1.7-.8,3.6-1.3,5.7-1.3s4.8.5,6.7,1.6c2,1.1,3.6,2.6,4.7,4.6,1.2-1.8,2.7-3.3,4.7-4.5,2-1.2,4.2-1.7,6.5-1.7ZM306.8,501.4c-3.3,0-6.2-.7-8.9-2.1-2.6-1.4-4.7-3.4-6.2-6-1.5-2.6-2.2-5.6-2.2-9.1s.8-6.5,2.3-9.1c1.5-2.6,3.6-4.7,6.2-6.1,2.6-1.4,5.6-2.1,8.9-2.1s6.2.7,8.9,2.1c2.6,1.4,4.7,3.4,6.2,6.1,1.5,2.6,2.3,5.6,2.3,9.1s-.8,6.5-2.3,9.1c-1.5,2.6-3.6,4.6-6.3,6-2.6,1.4-5.6,2.1-8.9,2.1ZM306.8,492.6c2,0,3.6-.7,5-2.2,1.4-1.4,2.1-3.5,2.1-6.2s-.7-4.7-2-6.2c-1.3-1.4-3-2.2-4.9-2.2s-3.7.7-5,2.2c-1.3,1.4-2,3.5-2,6.2s.6,4.7,1.9,6.2c1.3,1.4,3,2.2,4.9,2.2ZM327.7,484.2c0-3.4.6-6.5,1.9-9.1,1.3-2.6,3.1-4.6,5.3-6s4.7-2.1,7.5-2.1,4.2.5,6,1.4c1.8.9,3.3,2.2,4.3,3.7v-15.5h10.3v44.4h-10.3v-4.8c-1,1.6-2.3,2.9-4.1,3.8-1.8,1-3.8,1.4-6.2,1.4s-5.3-.7-7.5-2.1c-2.2-1.4-4-3.5-5.3-6.1-1.3-2.6-1.9-5.7-1.9-9.1ZM352.8,484.2c0-2.6-.7-4.6-2.2-6.1-1.4-1.5-3.1-2.2-5.2-2.2s-3.8.7-5.2,2.2c-1.4,1.4-2.1,3.4-2.1,6s.7,4.6,2.1,6.1c1.4,1.5,3.2,2.2,5.2,2.2s3.8-.7,5.2-2.2c1.4-1.5,2.2-3.5,2.2-6.1ZM402,483.7c0,1,0,2-.2,3h-23.2c.2,2.1.8,3.7,2,4.8,1.2,1.1,2.7,1.6,4.4,1.6,2.6,0,4.3-1.1,5.3-3.2h10.9c-.6,2.2-1.6,4.2-3.1,5.9-1.4,1.8-3.3,3.1-5.5,4.1s-4.7,1.5-7.4,1.5-6.2-.7-8.8-2.1c-2.6-1.4-4.6-3.4-6-6-1.4-2.6-2.2-5.6-2.2-9.1s.7-6.5,2.1-9.1c1.4-2.6,3.4-4.6,6-6s5.5-2.1,8.8-2.1,6.1.7,8.6,2c2.5,1.4,4.5,3.3,5.9,5.8,1.4,2.5,2.2,5.5,2.2,8.8ZM391.5,481c0-1.8-.6-3.2-1.8-4.2s-2.7-1.6-4.5-1.6-3.2.5-4.4,1.5c-1.2,1-1.9,2.4-2.2,4.3h12.8Z"/>
      <text class="cls-4" transform="translate(353.9 290.2)"><tspan x="0" y="0">YELLOW</tspan></text>
    </g>
  </g>
</svg>