<?xml version="1.0" encoding="UTF-8"?>
<svg id="greyscale--igb_three_lines--opt2" xmlns="http://www.w3.org/2000/svg" version="1.1" viewBox="0 0 1920 1080">
   <path fill="#878787" d="M1062,717c3.8,0,7.7-.8,11.2-2.5,6.7-3.1,11.9-8.8,14.3-15.7l123.7-358.4L1420.7,0h-63.4l-193.6,314.6c-1,1.7-1.9,3.5-2.5,5.3l-115.4,334.5L0,237.6v58.1l1052,419.4c3.2,1.3,6.6,1.9,10,1.9h0Z"/>
  <path fill="#b7b7b7" d="M1252.8,806.6c13.3-2.4,22.7-14.2,22.1-27.7l-17.4-410.7L1484.1,0h-63.4l-213.5,346.9c-2.8,4.6-4.2,9.9-4,15.3l16.8,395.4-629.9,114.8c-7.1,1.3-13.4,5.4-17.5,11.4-4.1,6-5.6,13.3-4.2,20.4l34.8,175.8h55l-31.6-159.3,626-114.1h0Z"/>
  <path fill="#a0a0a0" d="M1827.1,247.4c-6.8-3.8-14.9-4.4-22.2-1.8s-13.2,8.3-16,15.6l-194.1,496.2-286-390.4L1543.7,0h-64.1l-226.3,353.4c-6,9.4-5.6,21.5,1,30.5l326,445c5.1,7,13.2,11,21.8,11s2.3,0,3.5-.2c9.8-1.3,18.1-7.8,21.7-16.9l200.8-513.2,92.1,51.2v-61.8l-92.9-51.6h0Z"/>
</svg>