<?xml version="1.0" encoding="UTF-8"?>
<svg id="greyscale--igb_three_lines--opt1" xmlns="http://www.w3.org/2000/svg" version="1.1" viewBox="0 0 1920 1080">
  <path fill="#a0a0a0" d="M1828.2,248.1c-9.5-5.9-21.5-5.3-30.4,1.3l-259.4,194.5-207.7-98L1545.9,0h-63.6l-213.5,343.1c-4.1,6.5-5.2,14.5-3,21.9,2.2,7.4,7.4,13.5,14.4,16.8l249.9,117.9c3.7,1.7,7.6,2.6,11.5,2.6,5.7,0,11.4-1.8,16.2-5.4l257.6-193.2,104.6,64.9v-63.5l-91.8-56.9h0Z"/>
  <path fill="#b7b7b7" d="M1204.6,352.7l-107.2,326.9c-4.4,13.5,2.3,28,15.4,33.4l585,239c3.3,1.3,6.8,2,10.2,2,8,0,15.8-3.6,21.1-10.1l191-237.4v-86.2l-220.4,274-543.1-221.9,98.4-300L1484.1,0h-63.4l-213.5,346.9c-1.1,1.8-2,3.7-2.7,5.7Z"/>
  <path fill="#878787" d="M1198.4,353.1c4.7-2.2,8.6-5.8,11.2-10.2L1420.7,0h-63.4l-189.4,307.9-407.6,196.8c-7.8,3.8-13.3,11-14.8,19.5s1.1,17.2,7,23.5l507.7,532.4h74.6l-517.6-542.8,381.3-184.1h0Z"/>
</svg>