<svg id="Layer_1" xmlns="http://www.w3.org/2000/svg" viewBox="0 0 50 50"><path d="m35.66,4.59c-3.89,0-7.59,1.65-10.2,4.47-2.61-2.83-6.31-4.47-10.2-4.47C7.62,4.59,1.4,10.81,1.4,18.46s4.09,14.71,11.83,21.21c5.74,4.82,11.41,7.48,11.64,7.59.19.09.39.13.59.13s.4-.04.59-.13c.24-.11,5.9-2.77,11.64-7.59,7.74-6.5,11.83-13.84,11.83-21.21s-6.22-13.87-13.87-13.87h0Z" fill="#1a1a1a" stroke-width="0"/><path d="m15.27,7.39c3.6,0,6.98,1.76,9.05,4.7.26.37.69.6,1.15.6s.89-.22,1.15-.6c2.07-2.94,5.46-4.7,9.05-4.7,6.1,0,11.06,4.96,11.06,11.06,0,1.54-.21,3.02-.58,4.45-5.68-5.15-12.94-7.97-20.68-7.97s-15.01,2.82-20.68,7.97c-.37-1.43-.58-2.91-.58-4.45,0-6.1,4.96-11.06,11.06-11.06h0Z" fill="#58266b" stroke-width="0"/><path d="m44.12,27.93c-4.86-5.09-11.56-7.98-18.65-7.98s-13.79,2.89-18.65,7.98c-.58-1.04-1.08-2.12-1.48-3.24,5.45-5.21,12.55-8.08,20.14-8.08s14.69,2.86,20.14,8.08c-.4,1.12-.91,2.2-1.48,3.24h0Z" fill="#d95a6b" stroke-width="0"/><path d="m41.21,32.18c-3.93-4.54-9.7-7.21-15.74-7.21s-11.81,2.67-15.74,7.21c-.72-.88-1.4-1.79-2.02-2.75,4.57-4.97,10.97-7.8,17.76-7.8s13.19,2.83,17.76,7.8c-.62.96-1.3,1.87-2.02,2.75h0Z" fill="#fbad41" stroke-width="0"/><path d="m33.96,39.05c-2.04-2.57-5.17-4.11-8.49-4.11s-6.45,1.54-8.49,4.11c-.85-.65-1.72-1.35-2.59-2.1,2.68-3.36,6.73-5.34,11.08-5.34s8.4,1.98,11.08,5.34c-.86.75-1.73,1.45-2.59,2.1h0Z" fill="#fff" stroke-width="0"/><path d="m25.47,44.43c-1.17-.6-3.96-2.1-7.14-4.38,1.72-2.14,4.35-3.43,7.14-3.43s5.41,1.29,7.14,3.43c-3.18,2.27-5.96,3.78-7.14,4.38Z" fill="#58266b" stroke-width="0"/><path d="m37.79,35.81c-3-3.71-7.51-5.89-12.33-5.89s-9.33,2.18-12.33,5.89c-.79-.74-1.56-1.52-2.3-2.34,3.62-4.29,8.99-6.82,14.63-6.82s11.02,2.53,14.64,6.82c-.75.82-1.52,1.6-2.31,2.34h0Z" fill="#2e95b9" stroke-width="0"/></svg>