<svg id="Layer_1" xmlns="http://www.w3.org/2000/svg" viewBox="0 0 50 50"><polygon points="17.83 22.11 .28 22.11 .28 14.38 20.92 14.38 17.83 22.11" fill="#58266b" stroke="#fff" stroke-miterlimit="10" stroke-width=".25"/><polygon points="39.49 22.11 17.83 22.11 20.92 14.38 42.57 14.38 39.49 22.11" fill="#d95a6b" stroke="#fff" stroke-miterlimit="10" stroke-width=".25"/><polygon points="49.72 22.11 39.49 22.11 42.57 14.38 49.72 14.38 49.72 22.11" fill="#fbad41" stroke="#fff" stroke-miterlimit="10" stroke-width=".25"/><polygon points="17.83 45.31 .28 45.31 .28 37.58 20.92 37.58 17.83 45.31" fill="#2e95b9" stroke="#fff" stroke-miterlimit="10" stroke-width=".25"/><polygon points="39.49 45.31 17.83 45.31 20.92 37.58 42.57 37.58 39.49 45.31" fill="#fbad41" stroke="#fff" stroke-miterlimit="10" stroke-width=".25"/><polygon points="49.72 45.31 39.49 45.31 42.57 37.58 49.72 37.58 49.72 45.31" fill="#333" stroke="#fff" stroke-miterlimit="10" stroke-width=".25"/><polygon points="27.1 37.58 .28 37.58 .28 29.85 30.19 29.85 27.1 37.58" fill="#fbad41" stroke="#fff" stroke-miterlimit="10" stroke-width=".25"/><polygon points="49.72 37.58 27.13 37.58 30.22 29.85 49.72 29.85 49.72 37.58" fill="#58266b" stroke="#fff" stroke-miterlimit="10" stroke-width=".25"/><polygon points="20.92 29.85 .28 29.85 .28 22.11 24.01 22.11 20.92 29.85" fill="#333" stroke="#fff" stroke-miterlimit="10" stroke-width=".25"/><polygon points="33.31 29.85 20.92 29.85 24.01 22.11 36.4 22.11 33.31 29.85" fill="#2e95b9" stroke="#fff" stroke-miterlimit="10" stroke-width=".25"/><polygon points="49.72 29.85 33.31 29.85 36.4 22.11 49.72 22.11 49.72 29.85" fill="#d95a6b" stroke="#fff" stroke-miterlimit="10" stroke-width=".25"/><path d="m2.39,8.8c-.68,0-1.24-1.06-1.24-2.38s.56-2.39,1.24-2.39h22.27c.68,0,1.24,1.06,1.24,2.39s-.56,2.38-1.24,2.38H2.39Z" fill="#b3b3b3" fill-rule="evenodd" stroke="#fff" stroke-miterlimit="10" stroke-width=".25"/></svg>