<svg id="Layer_1" xmlns="http://www.w3.org/2000/svg" viewBox="0 0 50 50"><path d="m9.18,5.2c0-.79.64-1.43,1.43-1.43h28.56c.79,0,1.43.64,1.43,1.43s-.64,1.43-1.43,1.43H10.61c-.79,0-1.43-.64-1.43-1.43Z" fill="#fbad41" stroke-width="0"/><path d="m3.47,10.92c0-.79.64-1.43,1.43-1.43h39.98c.79,0,1.43.64,1.43,1.43s-.64,1.43-1.43,1.43H4.9c-.79,0-1.43-.64-1.43-1.43Z" fill="#d95a6b" stroke-width="0"/><path d="m45.89,15.62c-.27-.27-.63-.42-1.01-.42h0s-39.98,0-39.98,0c-.79,0-1.43.64-1.43,1.43v28.56c0,.38.15.74.42,1.01.27.27.63.42,1.01.42h39.98c.38,0,.74-.15,1.01-.42s.42-.63.42-1.01v-28.56c0-.38-.15-.74-.42-1.01Zm-13.16,16.54h0s-12.85,7.12-12.85,7.12c-.21.12-.46.19-.7.19-.26,0-.51-.07-.73-.2-.43-.26-.7-.72-.7-1.23v-14.28c0-.5.27-.97.7-1.23.44-.26.99-.26,1.43,0l12.85,7.14c.45.25.72.73.72,1.24s-.28.99-.72,1.24Z" fill="#58266b" stroke-width="0"/><circle cx="37.48" cy="36.97" r="12.52" fill="#fff" stroke-width="0"/><path d="m44.42,35.12l-4.04,2.93,1.54,4.75c.04.11,0,.23-.1.3-.05.03-.1.05-.16.05s-.11-.02-.16-.05l-4.04-2.93-4.04,2.93c-.09.07-.22.07-.31,0-.09-.07-.13-.19-.1-.3l1.54-4.75-4.04-2.93c-.09-.07-.13-.19-.1-.3.04-.11.14-.18.25-.18h4.99s1.54-4.75,1.54-4.75c.04-.11.13-.17.25-.17s.22.07.25.17l1.54,4.74h4.99c.12,0,.22.07.25.18.04.11,0,.23-.1.3h0Zm-6.94-8.84c-5.9,0-10.69,4.8-10.69,10.69s4.8,10.69,10.69,10.69,10.69-4.8,10.69-10.69-4.8-10.69-10.69-10.69Z" fill="#fbad41" stroke-width="0"/><path d="m37.48,47.93c-6.04,0-10.96-4.92-10.96-10.96s4.92-10.96,10.96-10.96,10.96,4.92,10.96,10.96-4.92,10.96-10.96,10.96Zm0-23c-6.64,0-12.04,5.4-12.04,12.04s5.4,12.04,12.04,12.04,12.04-5.4,12.04-12.04-5.4-12.04-12.04-12.04Z" fill="#d95a6b" stroke-width="0"/></svg>