<svg id="Layer_1" xmlns="http://www.w3.org/2000/svg" viewBox="0 0 50 50"><path d="m35,30.69c-.47,0-.84-.28-.84-.62s.38-.62.84-.62h6.75c.47,0,.84.28.84.62s-.38.62-.84.62h-6.75Z" fill-rule="evenodd" stroke-width="0"/><path d="m34.78,27.33c-.35,0-.63-.28-.63-.62s.28-.62.63-.62h11.26c.35,0,.63.28.63.62s-.28.62-.63.62h-11.26Z" fill-rule="evenodd" stroke-width="0"/><path d="m34.7,34.04c-.3,0-.54-.28-.54-.62s.24-.62.54-.62h9.68c.3,0,.54.28.54.62s-.24.62-.54.62h-9.68Z" fill-rule="evenodd" stroke-width="0"/><path d="m34.27,19.37c-.44,0-.79-.78-.79-1.74s.35-1.74.79-1.74h14.23c.44,0,.79.78.79,1.74s-.35,1.74-.79,1.74h-14.23Z" fill-rule="evenodd" stroke-width="0"/><path d="m34.78,23.97c-.35,0-.63-.28-.63-.62s.28-.62.63-.62h8.13c.35,0,.63.28.63.62s-.28.62-.63.62h-8.13Z" fill-rule="evenodd" stroke-width="0"/><polyline points="-3.93 32.33 6.94 9.56 30.84 9.56 19.99 32.33 8.63 32.33" fill="#2c1e33" stroke-width="0"/><path d="m11.04,17.21c0-1.3,1.05-2.35,2.35-2.35s2.23.95,2.33,2.16l1.12-1.12c-.53-1.39-1.87-2.38-3.45-2.38-2.04,0-3.69,1.65-3.69,3.69,0,1.58.99,2.92,2.39,3.45l1.12-1.12c-1.21-.1-2.16-1.1-2.16-2.33Z" fill="#fff" stroke-width="0"/><path d="m29,21.89l-8.63-8.63c-.31-.3-.8-.3-1.11,0l-10,10-3.68-3.68c-.31-.3-.8-.3-1.11,0l-7.99,7.99h-.93c-.43,0-.78.35-.78.78s.35.78.78.78h1.26l16.47.02c.07,0,.14-.01.2-.02h15.45m0-1.56h-15.34l-3.21-3.21,9.45-9.44,9.11,9.11" fill="#fff" fill-rule="evenodd" stroke-width="0"/><polyline points="3.72 35.56 20.7 35.56 27.15 25.49" fill="none" fill-rule="evenodd" stroke="#faad3f" stroke-linecap="round" stroke-linejoin="round" stroke-width="3"/><polyline points="3.72 40.6 20.7 40.6 27.15 30.53" fill="none" fill-rule="evenodd" stroke="#d95a6b" stroke-linecap="round" stroke-linejoin="round" stroke-width="3"/></svg>