<svg version="1.1" id="Layer_1" xmlns="http://www.w3.org/2000/svg" xmlns:xlink="http://www.w3.org/1999/xlink" x="0px" y="0px"
	 viewBox="0 0 50 50" style="enable-background:new 0 0 50 50;" xml:space="preserve">
<style type="text/css">
	.st0{fill:#2E95B9;}
</style>
<path class="st0" d="M6.6,11.6c0-0.8,0.7-1.5,1.5-1.5h33.5c0.8,0,1.5,0.7,1.5,1.5s-0.7,1.5-1.5,1.5H8.1C7.3,13.1,6.6,12.5,6.6,11.6z
	 M11.2,5.5c0-0.8,0.7-1.5,1.5-1.5H37c0.8,0,1.5,0.7,1.5,1.5S37.9,7,37.1,7H12.7C11.9,7,11.2,6.4,11.2,5.5z M20.3,35v-7.2l7.2,3.6
	L20.3,35z M31.7,30l-12.2-6.1c-0.5-0.2-1-0.2-1.5,0.1c-0.5,0.3-0.7,0.8-0.7,1.3v12.2c0,0.5,0.3,1,0.7,1.3c0.2,0.2,0.5,0.2,0.8,0.2
	c0.2,0,0.5-0.1,0.7-0.2l12.2-6.1c0.5-0.3,0.8-0.8,0.8-1.4S32.2,30.3,31.7,30L31.7,30L31.7,30z M43.2,42c0,0.4-0.2,0.8-0.5,1.1
	s-0.7,0.5-1.1,0.5H8.1c-0.8,0-1.5-0.7-1.5-1.5V20.7c0-0.8,0.7-1.5,1.5-1.5h33.5c0.4,0,0.8,0.2,1.1,0.5s0.5,0.7,0.5,1.1L43.2,42
	L43.2,42z M41.6,16.2H8.1c-2.5,0-4.6,2-4.6,4.6V42c0,2.5,2,4.6,4.6,4.6h33.5c2.5,0,4.6-2,4.6-4.6V20.7
	C46.2,18.2,44.2,16.2,41.6,16.2L41.6,16.2z"/>
</svg>
