<svg id="Layer_1" xmlns="http://www.w3.org/2000/svg" viewBox="0 0 50 50"><polyline points="16.73 45.91 40.57 4.79 49.93 4.79 50 28.59 39.63 45.91 16.73 45.91" fill="#fcee21" stroke-width="0"/><path d="m2.64,31.85c-.35,0-.64-.29-.64-.64s.29-.64.64-.64h5.14c.35,0,.64.29.64.64s-.29.64-.64.64H2.64Z" fill-rule="evenodd" stroke-width="0"/><path d="m2.64,28.35c-.35,0-.64-.29-.64-.64s.29-.64.64-.64h11.57c.35,0,.64.29.64.64s-.29.64-.64.64H2.64Z" fill-rule="evenodd" stroke-width="0"/><path d="m2.54,21.35c-.56,0-1.01-.8-1.01-1.79s.45-1.8,1.01-1.8h18.21c.56,0,1.01.8,1.01,1.8s-.45,1.79-1.01,1.79H2.54Z" fill-rule="evenodd" stroke-width="0"/><path d="m2.64,24.85c-.35,0-.64-.29-.64-.64s.29-.64.64-.64h8.36c.36,0,.64.29.64.64s-.29.64-.64.64H2.64Z" fill-rule="evenodd" stroke-width="0"/><path d="m32.03,24.05c0-1.3,1.05-2.35,2.35-2.35s2.23.95,2.33,2.16l1.12-1.12c-.53-1.39-1.87-2.38-3.45-2.38-2.04,0-3.69,1.65-3.69,3.69,0,1.58.99,2.92,2.39,3.45l1.12-1.12c-1.21-.1-2.16-1.1-2.16-2.33Z" stroke-width="0"/><path d="m50,28.73l-8.63-8.63c-.31-.3-.8-.3-1.11,0l-10,10-3.68-3.68c-.31-.3-.8-.3-1.11,0l-7.99,7.99h-.93c-.43,0-.78.35-.78.78s.35.78.78.78h1.26l16.47.02c.07,0,.14-.01.2-.02h15.45m0-1.56h-15.34l-3.21-3.21,9.45-9.44,9.11,9.11" fill-rule="evenodd" stroke-width="0"/><circle cx="11.64" cy="11.92" r="7.95" fill="#fff" stroke-width="0"/><path d="m16.05,10.74l-2.56,1.86.98,3.01c.02.07,0,.15-.06.19-.03.02-.06.03-.1.03s-.07-.01-.1-.03l-2.56-1.86-2.56,1.86c-.06.04-.14.04-.2,0-.06-.04-.08-.12-.06-.19l.98-3.01-2.56-1.86c-.06-.04-.08-.12-.06-.19.02-.07.09-.12.16-.12h3.17s.98-3.01.98-3.01c.02-.07.09-.11.16-.11s.14.04.16.11l.98,3.01h3.17c.07,0,.14.05.16.12.02.07,0,.15-.06.19h0Zm-4.41-5.61c-3.74,0-6.79,3.04-6.79,6.79s3.04,6.79,6.79,6.79,6.79-3.04,6.79-6.79-3.04-6.79-6.79-6.79Z" fill="#d95a6b" stroke-width="0"/><path d="m11.64,18.88c-3.84,0-6.96-3.12-6.96-6.96s3.12-6.96,6.96-6.96,6.96,3.12,6.96,6.96-3.12,6.96-6.96,6.96Zm0-14.6c-4.21,0-7.64,3.43-7.64,7.64s3.43,7.64,7.64,7.64,7.64-3.43,7.64-7.64-3.43-7.64-7.64-7.64Z" fill="#2e95b9" stroke-width="0"/></svg>