<svg id="Layer_1" xmlns="http://www.w3.org/2000/svg" viewBox="0 0 50 50"><path d="m6.63,11.61c0-.84.68-1.52,1.52-1.52h33.48c.84,0,1.52.68,1.52,1.52s-.68,1.52-1.52,1.52H8.15c-.84,0-1.52-.68-1.52-1.52Zm4.57-6.09c0-.84.68-1.52,1.52-1.52h24.35c.84,0,1.52.68,1.52,1.52s-.68,1.52-1.52,1.52H12.72c-.84,0-1.52-.68-1.52-1.52Zm9.13,29.49v-7.24l7.24,3.62-7.24,3.62Zm11.34-4.98l-12.17-6.09c-.47-.24-1.03-.21-1.48.06-.45.28-.72.76-.73,1.29v12.17c0,.53.27,1.02.72,1.29.24.15.52.23.81.23.24,0,.47-.06.68-.17l12.17-6.09c.51-.26.83-.78.83-1.35s-.32-1.09-.83-1.35h0Zm11.49,12.01c0,.4-.16.79-.45,1.08-.29.29-.67.45-1.08.45H8.15c-.84,0-1.52-.68-1.52-1.52v-21.31c0-.84.68-1.52,1.52-1.52h33.48c.4,0,.79.16,1.08.45.29.29.45.67.45,1.08v21.31Zm-1.52-25.87H8.15c-2.52,0-4.57,2.04-4.57,4.57v21.31c0,2.52,2.04,4.57,4.57,4.57h33.48c2.52,0,4.57-2.04,4.57-4.57v-21.31c0-2.52-2.04-4.57-4.57-4.57Z" fill="#58266b" stroke-width="0"/><circle cx="37.48" cy="36.97" r="12.52" fill="#fff" stroke-width="0"/><path d="m44.42,35.12l-4.04,2.93,1.54,4.75c.04.11,0,.23-.1.3-.05.03-.1.05-.16.05s-.11-.02-.16-.05l-4.04-2.93-4.04,2.93c-.09.07-.22.07-.31,0-.09-.07-.13-.19-.1-.3l1.54-4.75-4.04-2.93c-.09-.07-.13-.19-.1-.3.04-.11.14-.18.25-.18h4.99s1.54-4.75,1.54-4.75c.04-.11.13-.17.25-.17s.22.07.25.17l1.54,4.74h4.99c.12,0,.22.07.25.18.04.11,0,.23-.1.3h0Zm-6.94-8.84c-5.9,0-10.69,4.8-10.69,10.69s4.8,10.69,10.69,10.69,10.69-4.8,10.69-10.69-4.8-10.69-10.69-10.69Z" fill="#fbad41" stroke-width="0"/><path d="m37.48,47.93c-6.04,0-10.96-4.92-10.96-10.96s4.92-10.96,10.96-10.96,10.96,4.92,10.96,10.96-4.92,10.96-10.96,10.96Zm0-23c-6.64,0-12.04,5.4-12.04,12.04s5.4,12.04,12.04,12.04,12.04-5.4,12.04-12.04-5.4-12.04-12.04-12.04Z" fill="#d95a6b" stroke-width="0"/></svg>