<svg id="Layer_1" xmlns="http://www.w3.org/2000/svg" viewBox="0 0 50 50"><polyline points="16.8 44.92 40.64 3.8 50 3.8 50.07 27.6 39.71 44.92 16.8 44.92" fill="#fcee21" stroke-width="0"/><path d="m2.72,30.87c-.35,0-.64-.29-.64-.64s.29-.64.64-.64h5.14c.35,0,.64.29.64.64s-.29.64-.64.64H2.72Z" fill-rule="evenodd" stroke-width="0"/><path d="m2.72,27.37c-.35,0-.64-.29-.64-.64s.29-.64.64-.64h11.57c.35,0,.64.29.64.64s-.29.64-.64.64H2.72Z" fill-rule="evenodd" stroke-width="0"/><path d="m2.61,20.37c-.56,0-1.01-.8-1.01-1.79s.45-1.8,1.01-1.8h18.21c.56,0,1.01.8,1.01,1.8s-.45,1.79-1.01,1.79H2.61Z" fill-rule="evenodd" stroke-width="0"/><path d="m2.72,23.87c-.35,0-.64-.29-.64-.64s.29-.64.64-.64h8.36c.36,0,.64.29.64.64s-.29.64-.64.64H2.72Z" fill-rule="evenodd" stroke-width="0"/><path d="m32.11,23.07c0-1.3,1.05-2.35,2.35-2.35s2.23.95,2.33,2.16l1.12-1.12c-.53-1.39-1.87-2.38-3.45-2.38-2.04,0-3.69,1.65-3.69,3.69,0,1.58.99,2.92,2.39,3.45l1.12-1.12c-1.21-.1-2.16-1.1-2.16-2.33Z" stroke-width="0"/><path d="m50.07,27.74l-8.63-8.63c-.31-.3-.8-.3-1.11,0l-10,10-3.68-3.68c-.31-.3-.8-.3-1.11,0l-7.99,7.99h-.93c-.43,0-.78.35-.78.78s.35.78.78.78h1.26l16.47.02c.07,0,.14-.01.2-.02h15.45m0-1.56h-15.34l-3.21-3.21,9.45-9.44,9.11,9.11" fill-rule="evenodd" stroke-width="0"/></svg>