<svg id="Layer_1" xmlns="http://www.w3.org/2000/svg" viewBox="0 0 50 50"><path d="m3.43,28.63c-.27,0-.48-.22-.48-.48s.22-.48.48-.48h3.88c.27,0,.48.22.48.48s-.22.48-.48.48h-3.88Z" fill-rule="evenodd" stroke-width="0"/><path d="m3.43,26.03c-.27,0-.48-.22-.48-.48s.22-.48.48-.48h8.73c.27,0,.48.22.48.48s-.22.48-.48.48H3.43Z" fill-rule="evenodd" stroke-width="0"/><path d="m3.35,20.04c-.42,0-.76-.6-.76-1.35s.34-1.35.76-1.35h13.73c.42,0,.76.6.76,1.35s-.34,1.35-.76,1.35H3.35Z" fill-rule="evenodd" stroke-width="0"/><path d="m3.43,23.42c-.27,0-.48-.22-.48-.48s.22-.48.48-.48h6.3c.27,0,.48.22.48.48s-.22.48-.48.48H3.43Z" fill-rule="evenodd" stroke-width="0"/><polyline id="accent" points="15.9 38.4 36.35 3.12 50 3.12 50 14.26 29.75 47.48 10.09 47.48" fill="#fcee21" stroke-width="0"/><g id="photoicon"><path d="m29.69,19.54c0-1.08.87-1.95,1.95-1.95s1.85.79,1.94,1.8l.93-.93c-.44-1.16-1.55-1.98-2.87-1.98-1.69,0-3.07,1.37-3.07,3.07,0,1.31.82,2.43,1.98,2.87l.93-.93c-1-.08-1.8-.91-1.8-1.94Z" stroke-width="0"/><path d="m50,28.15h-.66l-11.89-11.89c-.25-.25-.67-.25-.92,0l-8.31,8.31-3.06-3.06c-.25-.25-.67-.25-.92,0l-6.73,6.64c-.58.62-.58.77-.57,1.04,0,.21.21.26.57.26h.36l13.68.02c.06,0,.11,0,.16-.02h18.28v-1.3Zm-18.19,0l-2.67-2.67,7.85-7.85,10.51,10.51h-15.69Z" fill-rule="evenodd" stroke-width="0"/></g><circle cx="38.66" cy="39.72" r="9.52" fill="#fff" stroke-width="0"/><path d="m43.93,38.31l-3.07,2.23,1.17,3.61c.03.08,0,.18-.07.23-.04.03-.08.04-.12.04s-.08-.01-.12-.04l-3.07-2.23-3.07,2.23c-.07.05-.17.05-.24,0-.07-.05-.1-.14-.07-.23l1.17-3.61-3.07-2.23c-.07-.05-.1-.14-.07-.23.03-.08.1-.14.19-.14h3.79s1.17-3.61,1.17-3.61c.03-.08.1-.13.19-.13s.17.05.19.13l1.17,3.61h3.79c.09,0,.17.06.19.14.03.09,0,.18-.07.23h0Zm-5.28-6.71c-4.48,0-8.12,3.64-8.12,8.12s3.64,8.12,8.12,8.12,8.12-3.64,8.12-8.12-3.64-8.12-8.12-8.12Z" fill="#d95a6b" stroke-width="0"/><path d="m38.66,48.05c-4.59,0-8.33-3.74-8.33-8.33s3.74-8.33,8.33-8.33,8.33,3.74,8.33,8.33-3.74,8.33-8.33,8.33Zm0-17.48c-5.05,0-9.15,4.1-9.15,9.15s4.1,9.15,9.15,9.15,9.15-4.1,9.15-9.15-4.1-9.15-9.15-9.15Z" fill="#2e95b9" stroke-width="0"/></svg>