<svg id="Layer_1" xmlns="http://www.w3.org/2000/svg" viewBox="0 0 50 50"><path d="m25.03,10.35c-5.51,2.58-9.33,8.17-9.33,14.65s3.82,12.07,9.33,14.65c5.52-2.58,9.35-8.17,9.35-14.65s-3.83-12.07-9.35-14.65Z" fill="#58266b" stroke-width="0"/><path d="m13.77,25c0-6.59,3.55-12.35,8.82-15.52-1.42-.41-2.92-.64-4.47-.64C9.2,8.84,1.95,16.09,1.95,25s7.25,16.16,16.16,16.16c1.55,0,3.05-.23,4.47-.64-5.27-3.17-8.82-8.93-8.82-15.52Z" fill="none" stroke-width="0"/><path d="m34.28,25c0-6.45-3.8-12.01-9.28-14.6-5.47,2.59-9.28,8.15-9.28,14.6s3.8,12.01,9.28,14.6c5.47-2.59,9.28-8.15,9.28-14.6Z" fill="none" stroke-width="0"/><path d="m36.23,25c0,6.59-3.55,12.35-8.82,15.52,1.42.41,2.92.64,4.47.64,8.91,0,16.16-7.25,16.16-16.16s-7.25-16.16-16.16-16.16c-1.55,0-3.05.23-4.47.64,5.27,3.17,8.82,8.93,8.82,15.52Z" fill="none" stroke-width="0"/><path d="m15.72,25c0-6.45,3.8-12.01,9.28-14.6-.77-.37-1.58-.68-2.41-.92-5.27,3.17-8.82,8.93-8.82,15.52s3.55,12.35,8.82,15.52c.83-.24,1.64-.55,2.41-.92-5.47-2.59-9.28-8.15-9.28-14.6Z" fill="#2e95b9" stroke-width="0"/><path d="m31.88,6.88c-2.44,0-4.76.49-6.88,1.37.84.35,1.64.77,2.41,1.23,1.42-.41,2.92-.64,4.47-.64,8.91,0,16.16,7.25,16.16,16.16s-7.25,16.16-16.16,16.16c-1.55,0-3.05-.23-4.47-.64-.77.46-1.57.88-2.41,1.23,2.12.88,4.45,1.37,6.88,1.37,9.99,0,18.12-8.13,18.12-18.12S41.87,6.88,31.88,6.88Z" fill="#2e95b9" stroke-width="0"/><path d="m34.28,25c0,6.45-3.8,12.01-9.28,14.6.77.37,1.58.68,2.41.92,5.27-3.17,8.82-8.93,8.82-15.52s-3.55-12.35-8.82-15.52c-.83.24-1.64.55-2.41.92,5.47,2.59,9.28,8.15,9.28,14.6Z" fill="#d95a6b" stroke-width="0"/><path d="m18.12,41.16c-8.91,0-16.16-7.25-16.16-16.16S9.2,8.84,18.12,8.84c1.55,0,3.05.23,4.47.64.77-.46,1.57-.88,2.41-1.23-2.12-.88-4.45-1.37-6.88-1.37C8.13,6.88,0,15.01,0,25s8.13,18.12,18.12,18.12c2.44,0,4.76-.49,6.88-1.37-.84-.35-1.64-.77-2.41-1.23-1.42.41-2.92.64-4.47.64Z" fill="#d95a6b" stroke-width="0"/><path d="m25,10.4c.77-.37,1.58-.68,2.41-.92-.77-.46-1.57-.88-2.41-1.23-.84.35-1.64.77-2.41,1.23.83.24,1.64.55,2.41.92Z" fill="#58266b" stroke-width="0"/><path d="m25,39.6c-.77.37-1.58.68-2.41.92.77.46,1.57.88,2.41,1.23.84-.35,1.64-.77,2.41-1.23-.83-.24-1.64-.55-2.41-.92Z" fill="#58266b" stroke-width="0"/></svg>