<svg id="Layer_1" xmlns="http://www.w3.org/2000/svg" viewBox="0 0 50 50"><polygon points="49.25 10.95 .75 10.95 .75 39.05 49.2 39.05 49.2 10.95 49.25 10.95" stroke-width="0"/><polygon points="11.22 38.29 15.07 34.98 48.44 34.98 48.44 38.24 11.22 38.24 11.22 38.29" fill="#736357" stroke-width="0"/><polygon points="1.56 34.55 11.66 25.87 1.56 16.75 1.56 14.53 14.21 25.76 1.56 36.66 1.56 34.55" fill="#2e95b9" stroke-width="0"/><polygon points="1.56 17.68 10.57 25.81 1.56 33.63 1.56 17.68" fill="#fbad41" stroke-width="0"/><polygon points="1.56 11.71 2.38 11.71 17.68 25.76 3.46 38.29 1.56 38.29 1.56 37.69 15.24 25.76 1.56 13.55 1.56 11.71" fill="#fff" stroke-width="0"/><polygon points="48.44 11.87 48.44 15.4 14.48 15.4 10.41 11.71 14.96 11.71 48.44 11.87" fill="#d95a6b" stroke-width="0"/><polygon points="20.17 30.64 48.44 30.64 48.44 34.28 15.94 34.28 20.17 30.64" fill="#333" stroke-width="0"/><polygon points="20.23 20.61 15.34 16.21 48.44 16.21 48.44 20.61 20.23 20.61" fill="#fbad41" stroke-width="0"/><polygon points="25.49 25.38 21.04 21.37 48.44 21.37 48.44 25.49 25.49 25.38" fill="#2e95b9" stroke-width="0"/><polygon points="25.43 26.14 48.44 26.19 48.44 29.83 21.09 29.83 25.43 26.14" fill="#58266b" stroke-width="0"/><polygon points="6.99 38.29 4.71 38.29 18.87 25.76 3.57 11.71 6.23 11.71 21.26 25.76 6.99 38.29" fill="#d95a6b" stroke-width="0"/><polygon points="8.07 38.29 22.29 25.76 7.37 11.71 9.32 11.71 24.78 25.76 10.08 38.29 8.07 38.29" fill="#58266b" stroke-width="0"/></svg>