<svg id="ICON-framed-hero-block" xmlns="http://www.w3.org/2000/svg" viewBox="0 0 50 50"><rect x=".78" y="11.32" width="37.01" height="27.81" rx="3.17" ry="3.17" fill="#d95a6b"/><rect x="41.52" y="11.62" width="7.69" height="12.78" rx="1.92" ry="1.92" fill="#2e95b9"/><path d="M37.79,15.03c0-3.2-.35-3.71-3.66-3.71h-8.18l-15.92,27.81h15.29l12.46-21.09v-3Z" fill="#fbad41"/><circle cx="18.7" cy="23.99" r="1.58" fill="#d95a6b"/><polygon points="15.99 28.92 17.47 30.72 30.4 30.72 22.22 21.82 15.99 28.92" fill="#d95a6b"/><path d="M17.13,24.07c0-.83.63-1.49,1.41-1.49s1.34.61,1.4,1.37l.67-.71c-.32-.89-1.12-1.52-2.07-1.52-1.22,0-2.21,1.05-2.21,2.35,0,1,.59,1.86,1.43,2.19l.67-.71c-.72-.06-1.3-.7-1.3-1.48Z" fill="#fff"/><path d="M34.86,30.65h-3.55l-8.58-9.1c-.18-.19-.48-.19-.66,0l-5.99,6.36-2.2-2.34c-.18-.19-.48-.19-.66,0l-4.79,5.08h-3.55c-.26,0-.47.22-.47.5s.21.5.47.5h3.75l9.87.02s.08,0,.12-.02h16.26c.26,0,.47-.22.47-.5s-.21-.5-.47-.5ZM18.66,30.65l-1.92-2.04,5.66-6,7.58,8.04h-11.32Z" fill="#fff" fill-rule="evenodd"/><path d="M35.7,40.21H2.86c-1.58,0-2.86-1.3-2.86-2.9V13.73c0-1.6,1.29-2.9,2.86-2.9h32.84c1.58,0,2.86,1.3,2.86,2.9v23.58c0,1.6-1.29,2.9-2.86,2.9ZM2.86,12.41c-.72,0-1.31.59-1.31,1.32v23.58c0,.73.59,1.32,1.31,1.32h32.84c.72,0,1.31-.59,1.31-1.32V13.73c0-.73-.59-1.32-1.31-1.32H2.86Z"/><path d="M47.59,25.19h-4.45c-1.33,0-2.41-1.08-2.41-2.41v-9.54c0-1.33,1.08-2.41,2.41-2.41h4.45c1.33,0,2.41,1.08,2.41,2.41v9.54c0,1.33-1.08,2.41-2.41,2.41ZM43.14,12.41c-.46,0-.83.37-.83.83v9.54c0,.46.37.83.83.83h4.45c.46,0,.83-.37.83-.83v-9.54c0-.46-.37-.83-.83-.83h-4.45Z"/><rect x="41.52" y="26.65" width="7.69" height="12.78" rx="1.92" ry="1.92" fill="#58266b"/><path d="M47.59,40.21h-4.45c-1.33,0-2.41-1.08-2.41-2.41v-9.54c0-1.33,1.08-2.41,2.41-2.41h4.45c1.33,0,2.41,1.08,2.41,2.41v9.54c0,1.33-1.08,2.41-2.41,2.41ZM43.14,27.44c-.46,0-.83.37-.83.83v9.54c0,.46.37.83.83.83h4.45c.46,0,.83-.37.83-.83v-9.54c0-.46-.37-.83-.83-.83h-4.45Z"/></svg>