<svg id="Layer_1" xmlns="http://www.w3.org/2000/svg" viewBox="0 0 50 50"><path d="m9.18,5.01c0-.79.64-1.43,1.43-1.43h28.56c.79,0,1.43.64,1.43,1.43s-.64,1.43-1.43,1.43H10.61c-.79,0-1.43-.64-1.43-1.43Z" fill="#fbad41" stroke-width="0"/><path d="m3.47,10.72c0-.79.64-1.43,1.43-1.43h39.98c.79,0,1.43.64,1.43,1.43s-.64,1.43-1.43,1.43H4.9c-.79,0-1.43-.64-1.43-1.43Z" fill="#d95a6b" stroke-width="0"/><path d="m45.89,15.42c-.27-.27-.63-.42-1.01-.42h0s-39.98,0-39.98,0c-.79,0-1.43.64-1.43,1.43v28.56c0,.38.15.74.42,1.01.27.27.63.42,1.01.42h39.98c.38,0,.74-.15,1.01-.42s.42-.63.42-1.01v-28.56c0-.38-.15-.74-.42-1.01Zm-13.16,16.54h0s-12.85,7.12-12.85,7.12c-.21.12-.46.19-.7.19-.26,0-.51-.07-.73-.2-.43-.26-.7-.72-.7-1.23v-14.28c0-.5.27-.97.7-1.23.44-.26.99-.26,1.43,0l12.85,7.14c.45.25.72.73.72,1.24s-.28.99-.72,1.24Z" fill="#2e95b9" stroke-width="0"/></svg>