<svg id="svg_frame_hero_icon" xmlns="http://www.w3.org/2000/svg" viewBox="0 0 50 50"><g id="pink"><path d="m10.78,43.68c-.77-.16-1.35-.71-1.53-1.42L.24,18.91l-.02-.15c-.09-.61.12-1.23.56-1.67l.12-.12,4.88-2.86L13.48.11h4.4s-8.93,16.27-8.93,16.27c-.07.15-.32.51-.46.65l-.22.14-3.15,2.09,7.8,20.63,37.08,6.67v3.43h-1.86l-37.36-6.32Z" fill="#f2566e" fill-rule="evenodd" stroke-width="0"/></g><g id="yellow"><path d="m27.02,39.37c-.2,0-.4-.03-.59-.09l-22.54-4.27-.15-.07c-.61-.28-1.03-.85-1.12-1.5l-2.08-7.23v-.19c0-.74.25-1.27.94-1.87l6.29-5.66L17.68.11h4.35s-10.97,20.71-10.97,20.71c-.18.35-.51.56-.85.82l-5.61,5.2,1.26,4.71,21.13,3.89,23-7v4.05l-22.66,6.85-.24.02h-.09Z" fill="#faad3f" fill-rule="evenodd" stroke-width="0"/></g><g id="blue"><path d="m36.66,25.75c-.39,0-.76-.12-1.09-.33l-18.9-11.46c-.87-.59-1.14-1.66-.69-2.53L21.83.11h4.34s-5.45,11.37-5.45,11.37l14.36,8.75,1.02-5.3c.11-.7.66-1.31,1.33-1.54l12.56-5.1v4.15s-10.1,4.26-10.1,4.26l-1.32,7.44c-.11.66-.54,1.2-1.14,1.46-.25.11-.5.16-.77.16Z" fill="#45acce" fill-rule="evenodd" stroke-width="0"/></g></svg>