<svg id="Layer_1" xmlns="http://www.w3.org/2000/svg" viewBox="0 0 50 50"><path d="m47.89,33.03h0c0-6.22-2.42-12.07-6.82-16.47-4.4-4.4-10.25-6.82-16.47-6.82-5.81,0-11.38,2.15-15.68,6.07-4.2,3.83-6.84,9.02-7.47,14.64-.59.7-.95,1.6-.95,2.59,0,2.21,1.8,4.02,4.02,4.02h14.46c2.21,0,4.02-1.8,4.02-4.02s-1.8-4.02-4.02-4.02h-.8c0-.55-.19-1.06-.5-1.47,1.67-2.11,4.21-3.35,6.93-3.35,3.42,0,6.48,1.94,7.95,4.99-.77.82-1.3,1.88-1.47,3.05h-.06c-2.21,0-4.02,1.8-4.02,4.02s1.8,4.02,4.02,4.02h14.46c2.21,0,4.02-1.8,4.02-4.02,0-1.31-.63-2.48-1.61-3.21h0Z" stroke-width="0"/><path d="m45.48,38.65h-14.46c-1.33,0-2.41-1.08-2.41-2.41s1.08-2.41,2.41-2.41h.8c.44,0,.8-.36.8-.8,0-2.21,1.8-4.02,4.02-4.02,1.61,0,3.07.96,3.7,2.45.11.25.34.43.6.48.27.05.54-.05.73-.25.15-.17.37-.26.59-.26.44,0,.8.36.8.8v.8c0,.44.36.8.8.8h1.61c1.33,0,2.41,1.08,2.41,2.41s-1.08,2.41-2.41,2.41h0Z" fill="#fff" stroke-width="0"/><path d="m24.6,22.59c-3.26,0-6.31,1.51-8.28,4.08-.18-.04-.36-.06-.55-.06-.31,0-.61.06-.89.17-.09-.15-.19-.29-.3-.42,1.03-1.54,2.4-2.83,4-3.76,1.82-1.06,3.91-1.61,6.03-1.61,2.45,0,4.8.73,6.81,2.11,1.67,1.15,3.01,2.68,3.93,4.47-.53.13-1.04.33-1.5.6-1.8-3.42-5.32-5.57-9.24-5.57h0Z" fill="#58266b" stroke-width="0"/><path d="m18.98,30.62c1.33,0,2.41,1.08,2.41,2.41s-1.08,2.41-2.41,2.41H4.52c-1.33,0-2.41-1.08-2.41-2.41s1.08-2.41,2.41-2.41h.8c.44,0,.8-.36.8-.8,0-2.21,1.8-4.02,4.02-4.02,1.61,0,3.07.96,3.7,2.45.11.25.34.43.6.48.27.05.54-.05.73-.25.15-.17.37-.26.59-.26.44,0,.8.36.8.8v.8c0,.44.36.8.8.8h1.61Z" fill="#fff" stroke-width="0"/><path d="m41.12,29.63c-1.6-7.81-8.52-13.46-16.52-13.46-3.02,0-5.98.81-8.57,2.34-2.37,1.4-4.36,3.36-5.8,5.7-.03,0-.06,0-.09,0-.69,0-1.35.12-1.96.35,3.13-6.07,9.42-9.99,16.42-9.99,9.07,0,16.7,6.58,18.2,15.32-.17-.04-.35-.06-.53-.06-.31,0-.61.06-.89.17-.08-.13-.17-.25-.26-.37h0Z" fill="#fbad41" stroke-width="0"/><path d="m37.05,27.42c-1.03-2.28-2.65-4.23-4.73-5.65-2.28-1.56-4.95-2.39-7.72-2.39-2.4,0-4.76.63-6.83,1.83-1.73,1-3.23,2.38-4.37,4.02-.44-.31-.93-.56-1.44-.74,2.82-4.17,7.57-6.72,12.65-6.72,6.53,0,12.25,4.15,14.38,10.14-.6-.27-1.25-.44-1.93-.49h0Z" fill="#2e95b9" stroke-width="0"/><path d="m10,17c4-3.64,9.18-5.65,14.6-5.65,5.79,0,11.24,2.25,15.33,6.35,3.93,3.93,6.16,9.09,6.34,14.61-.26-.05-.52-.08-.79-.08h-.8c0-.14-.01-.29-.04-.42-.64-10.58-9.43-18.85-20.04-18.85-8.59,0-16.2,5.44-18.99,13.54-.53.73-.9,1.59-1.03,2.52h-.06c-.44,0-.87.07-1.27.21.83-4.69,3.19-8.98,6.75-12.23h0Z" fill="#d95a6b" stroke-width="0"/></svg>