<svg id="Layer_1" xmlns="http://www.w3.org/2000/svg" viewBox="0 0 50 50"><path d="m42.82,35.17c-5.63.09-11.07,1.23-16.32,3.31V13.23c5.2-2.13,10.69-3.31,16.32-3.45v25.4Zm-18.4,3.26c-5.25-2.03-10.69-3.17-16.32-3.31V9.82c5.63.14,11.12,1.28,16.32,3.45v25.16Zm22.47-27.29c-.71,0-1.37.05-2.08.05v-2.41c0-.57-.47-1.04-1.04-1.04-6.34,0-12.53,1.23-18.35,3.69-5.82-2.46-11.97-3.69-18.31-3.69-.57,0-1.04.47-1.04,1.04v2.41c-.66-.05-1.37-.05-2.08-.05-.57,0-1.04.47-1.04,1.04v26.06c0,.57.47,1.04,1.04,1.04,7.24,0,14.33,1.47,21.05,4.3.14.05.28.09.42.09s.28,0,.42-.09c6.67-2.84,13.76-4.3,21-4.3.57,0,1.04-.42,1.04-1.04V12.18c0-.57-.47-1.04-1.04-1.04h0Z" fill="#58266b" stroke-width="0"/><path d="m30.42,18c.09,0,.19,0,.28-.05,2.7-.8,5.44-1.37,8.23-1.66.57-.05.95-.57.9-1.13-.05-.57-.57-.95-1.13-.9-2.89.33-5.77.9-8.56,1.75-.52.14-.85.71-.71,1.28.14.43.57.71.99.71h0Z" fill="#d95a6b" stroke-width="0"/><path d="m38.75,19.23c-2.89.33-5.77.9-8.61,1.75-.52.14-.85.71-.71,1.28.14.42.52.71.99.71.09,0,.19,0,.28-.05,2.7-.8,5.44-1.37,8.23-1.66.57-.05.95-.57.9-1.13-.05-.57-.52-.99-1.09-.9h0Z" fill="#fbad41" stroke-width="0"/><path d="m38.75,24.15c-2.89.33-5.77.9-8.61,1.75-.52.14-.85.71-.71,1.28.14.42.52.71.99.71.09,0,.19,0,.28-.05,2.7-.8,5.44-1.37,8.23-1.66.57-.05.95-.57.9-1.13-.05-.52-.52-.94-1.09-.9h0Z" fill="#2e95b9" stroke-width="0"/><path d="m38.75,29.12c-2.89.33-5.77.9-8.61,1.75-.52.14-.85.71-.71,1.28.14.42.52.71.99.71.09,0,.19,0,.28-.05,2.7-.8,5.44-1.37,8.23-1.66.57-.05.95-.57.9-1.13-.05-.57-.52-.94-1.09-.9h0Z" fill="#58266b" stroke-width="0"/><path d="m16.23,21.55c.38,1.04.71,1.99,1.04,2.89-.24-.05-.47-.09-.71-.14-.42-.09-.85-.19-1.37-.28.38-.85.71-1.61,1.04-2.46h0Zm-3.5,6.15c.52.19,1.13-.05,1.32-.62.14-.42.28-.76.42-1.13.62.09,1.13.24,1.66.33.62.14,1.23.28,1.99.42.19.42.33.9.52,1.37.14.38.57.66.95.66.14,0,.24-.05.38-.09.52-.19.76-.8.57-1.32-1.28-3.22-1.89-5.01-3.26-8.89-.14-.38-.52-.66-.95-.71-.42,0-.8.24-.99.62-1.32,2.98-1.99,4.54-3.31,7.99-.1.57.19,1.14.71,1.37h0Z" fill="#333" stroke-width="0"/></svg>