<svg id="Layer_1" xmlns="http://www.w3.org/2000/svg" viewBox="0 0 50 50"><path d="m44.23,7.87H5.34c-.72,0-1.4.15-2.03.45-1.2.55-2.12,1.57-2.52,2.81-.17.48-.25,1-.25,1.54v25.41c0,.54.08,1.06.25,1.52.41,1.24,1.33,2.27,2.51,2.82.64.31,1.32.46,2.04.46h38.9c2.65,0,4.8-2.15,4.8-4.8V12.67c0-2.65-2.15-4.8-4.8-4.8h0Z" stroke-width="0"/><path d="m1.67,22l2.27,2.28c.29.29.45.68.45,1.09s-.16.8-.45,1.09l-2.27,2.28v-6.75Z" fill="#fbad41" stroke-width="0"/><path d="m1.67,30.35l3.08-3.08c.51-.51.79-1.18.79-1.9s-.28-1.39-.79-1.9l-3.08-3.08v-3.09l6.98,6.98c.29.29.45.68.45,1.09s-.16.8-.45,1.09l-6.98,6.98v-3.1Z" fill="#d95a6b" stroke-width="0"/><path d="m1.67,38.07v-3.02l7.78-7.79c.51-.51.79-1.18.79-1.9s-.28-1.39-.79-1.9L1.67,15.69v-3.02c0-.07.01-.12.01-.18l11.79,11.79c.3.29.45.68.45,1.09s-.16.8-.45,1.09L1.68,38.26c0-.06-.01-.12-.01-.18h0Z" fill="#fff" stroke-width="0"/><path d="m1.98,39.56l12.3-12.29c.51-.51.78-1.18.78-1.9s-.28-1.39-.78-1.9L1.98,11.18c.3-.68.81-1.26,1.45-1.65l14.74,14.74c.3.29.45.68.45,1.09s-.16.8-.45,1.09l-14.74,14.74c-.64-.38-1.15-.96-1.45-1.64h0Z" fill="#2e95b9" stroke-width="0"/><path d="m5.33,41.74c-.26,0-.51-.03-.75-.08l14.41-14.4c.5-.51.78-1.18.78-1.89s-.28-1.39-.78-1.9L4.59,9.08c.24-.05.49-.08.74-.08h2.21l15.27,15.28h0c.29.29.45.68.45,1.09s-.16.8-.46,1.09l-4.15,4.15-11.12,11.13h-2.21,0Z" fill="#58266b" stroke-width="0"/><path d="m47.89,38.07c0,2.02-1.64,3.67-3.67,3.67H9.16l4.51-4.52h34.23v.85h0Z" fill="#736357" stroke-width="0"/><polygon points="47.89 36.1 14.8 36.1 19.31 31.58 47.9 31.58 47.9 36.1 47.89 36.1" fill="#333" stroke-width="0"/><path d="m47.89,30.45h-27.44l3.17-3.18c.37-.37.63-.83.73-1.33h23.54v4.51h0Z" fill="#58266b" stroke-width="0"/><path d="m47.89,24.81h-23.54c-.11-.5-.36-.96-.73-1.33l-3.19-3.19h27.45v4.52Z" fill="#2e95b9" stroke-width="0"/><polygon points="47.89 19.15 19.3 19.15 14.8 14.65 47.89 14.65 47.89 19.15" fill="#fbad41" stroke-width="0"/><path d="m47.89,13.51H13.66s-4.51-4.51-4.51-4.51h35.07c2.02,0,3.67,1.65,3.67,3.67v.84h0Z" fill="#d95a6b" stroke-width="0"/></svg>