<svg width="245" height="68" viewBox="0 0 245 68" fill="none" xmlns="http://www.w3.org/2000/svg">
<rect x="0.520996" y="6.59326" width="244.162" height="54.884" fill="#F7AD46"/>
<g filter="url(#filter0_d_23_67)">
<path d="M70.0631 21.2923L61.3151 38.2123V46.5643H55.1591V38.2123L46.4111 21.2923H53.3951L58.2911 31.8763L63.1511 21.2923H70.0631ZM78.6994 26.2243V31.3363H86.9434V36.0883H78.6994V41.6323H88.0234V46.5643H72.5434V21.2923H88.0234V26.2243H78.6994ZM98.176 41.8123H106.24V46.5643H92.02V21.2923H98.176V41.8123ZM115.332 41.8123H123.396V46.5643H109.176V21.2923H115.332V41.8123ZM138.284 46.8163C135.908 46.8163 133.724 46.2643 131.732 45.1603C129.764 44.0563 128.192 42.5203 127.016 40.5523C125.864 38.5603 125.288 36.3283 125.288 33.8563C125.288 31.3843 125.864 29.1643 127.016 27.1963C128.192 25.2283 129.764 23.6923 131.732 22.5883C133.724 21.4843 135.908 20.9323 138.284 20.9323C140.66 20.9323 142.832 21.4843 144.8 22.5883C146.792 23.6923 148.352 25.2283 149.48 27.1963C150.632 29.1643 151.208 31.3843 151.208 33.8563C151.208 36.3283 150.632 38.5603 149.48 40.5523C148.328 42.5203 146.768 44.0563 144.8 45.1603C142.832 46.2643 140.66 46.8163 138.284 46.8163ZM138.284 41.2003C140.3 41.2003 141.908 40.5283 143.108 39.1843C144.332 37.8403 144.944 36.0643 144.944 33.8563C144.944 31.6243 144.332 29.8483 143.108 28.5283C141.908 27.1843 140.3 26.5123 138.284 26.5123C136.244 26.5123 134.612 27.1723 133.388 28.4923C132.188 29.8123 131.588 31.6003 131.588 33.8563C131.588 36.0883 132.188 37.8763 133.388 39.2203C134.612 40.5403 136.244 41.2003 138.284 41.2003ZM189.409 21.2923L182.821 46.5643H175.369L171.337 29.9323L167.161 46.5643H159.709L153.301 21.2923H159.889L163.525 39.6883L168.025 21.2923H174.793L179.113 39.6883L182.785 21.2923H189.409Z" fill="#292929"/>
</g>
<defs>
<filter id="filter0_d_23_67" x="44.4111" y="18.9324" width="144.998" height="27.8839" filterUnits="userSpaceOnUse" color-interpolation-filters="sRGB">
<feFlood flood-opacity="0" result="BackgroundImageFix"/>
<feColorMatrix in="SourceAlpha" type="matrix" values="0 0 0 0 0 0 0 0 0 0 0 0 0 0 0 0 0 0 127 0" result="hardAlpha"/>
<feOffset dx="-1" dy="-1"/>
<feGaussianBlur stdDeviation="0.5"/>
<feComposite in2="hardAlpha" operator="out"/>
<feColorMatrix type="matrix" values="0 0 0 0 1 0 0 0 0 1 0 0 0 0 1 0 0 0 0.8 0"/>
<feBlend mode="normal" in2="BackgroundImageFix" result="effect1_dropShadow_23_67"/>
<feBlend mode="normal" in="SourceGraphic" in2="effect1_dropShadow_23_67" result="shape"/>
</filter>
</defs>
</svg>
