<svg width="245" height="68" viewBox="0 0 245 68" fill="none" xmlns="http://www.w3.org/2000/svg">
<rect x="0.520996" y="6.94104" width="244.162" height="54.884" fill="#5D377C"/>
<g filter="url(#filter0_d_23_65)">
<path d="M74.4889 29.7471C74.4889 31.2111 74.1529 32.5551 73.4809 33.7791C72.8089 34.9791 71.7769 35.9511 70.3849 36.6951C68.9929 37.4391 67.2649 37.8111 65.2009 37.8111H61.3849V46.8831H55.2289V21.6111H65.2009C67.2169 21.6111 68.9209 21.9591 70.3129 22.6551C71.7049 23.3511 72.7489 24.3111 73.4449 25.5351C74.1409 26.7591 74.4889 28.1631 74.4889 29.7471ZM64.7329 32.9151C65.9089 32.9151 66.7849 32.6391 67.3609 32.0871C67.9369 31.5351 68.2249 30.7551 68.2249 29.7471C68.2249 28.7391 67.9369 27.9591 67.3609 27.4071C66.7849 26.8551 65.9089 26.5791 64.7329 26.5791H61.3849V32.9151H64.7329ZM83.7418 21.6111V36.7311C83.7418 38.2431 84.1138 39.4071 84.8578 40.2231C85.6018 41.0391 86.6938 41.4471 88.1338 41.4471C89.5738 41.4471 90.6778 41.0391 91.4458 40.2231C92.2138 39.4071 92.5978 38.2431 92.5978 36.7311V21.6111H98.7538V36.6951C98.7538 38.9511 98.2738 40.8591 97.3138 42.4191C96.3538 43.9791 95.0578 45.1551 93.4258 45.9471C91.8178 46.7391 90.0178 47.1351 88.0258 47.1351C86.0338 47.1351 84.2458 46.7511 82.6618 45.9831C81.1018 45.1911 79.8658 44.0151 78.9538 42.4551C78.0418 40.8711 77.5858 38.9511 77.5858 36.6951V21.6111H83.7418ZM115.965 46.8831L110.709 37.3431H109.233V46.8831H103.077V21.6111H113.409C115.401 21.6111 117.093 21.9591 118.485 22.6551C119.901 23.3511 120.957 24.3111 121.653 25.5351C122.349 26.7351 122.697 28.0791 122.697 29.5671C122.697 31.2471 122.217 32.7471 121.257 34.0671C120.321 35.3871 118.929 36.3231 117.081 36.8751L122.913 46.8831H115.965ZM109.233 32.9871H113.049C114.177 32.9871 115.017 32.7111 115.569 32.1591C116.145 31.6071 116.433 30.8271 116.433 29.8191C116.433 28.8591 116.145 28.1031 115.569 27.5511C115.017 26.9991 114.177 26.7231 113.049 26.7231H109.233V32.9871ZM145.821 29.7471C145.821 31.2111 145.485 32.5551 144.813 33.7791C144.141 34.9791 143.109 35.9511 141.717 36.6951C140.325 37.4391 138.597 37.8111 136.533 37.8111H132.717V46.8831H126.561V21.6111H136.533C138.549 21.6111 140.253 21.9591 141.645 22.6551C143.037 23.3511 144.081 24.3111 144.777 25.5351C145.473 26.7591 145.821 28.1631 145.821 29.7471ZM136.065 32.9151C137.241 32.9151 138.117 32.6391 138.693 32.0871C139.269 31.5351 139.557 30.7551 139.557 29.7471C139.557 28.7391 139.269 27.9591 138.693 27.4071C138.117 26.8551 137.241 26.5791 136.065 26.5791H132.717V32.9151H136.065ZM155.182 42.1311H163.246V46.8831H149.026V21.6111H155.182V42.1311ZM172.338 26.5431V31.6551H180.582V36.4071H172.338V41.9511H181.662V46.8831H166.182V21.6111H181.662V26.5431H172.338Z" fill="white"/>
</g>
<defs>
<filter id="filter0_d_23_65" x="54.229" y="21.6111" width="132.433" height="31.5239" filterUnits="userSpaceOnUse" color-interpolation-filters="sRGB">
<feFlood flood-opacity="0" result="BackgroundImageFix"/>
<feColorMatrix in="SourceAlpha" type="matrix" values="0 0 0 0 0 0 0 0 0 0 0 0 0 0 0 0 0 0 127 0" result="hardAlpha"/>
<feOffset dx="2" dy="3"/>
<feGaussianBlur stdDeviation="1.5"/>
<feComposite in2="hardAlpha" operator="out"/>
<feColorMatrix type="matrix" values="0 0 0 0 0 0 0 0 0 0 0 0 0 0 0 0 0 0 0.25 0"/>
<feBlend mode="normal" in2="BackgroundImageFix" result="effect1_dropShadow_23_65"/>
<feBlend mode="normal" in="SourceGraphic" in2="effect1_dropShadow_23_65" result="shape"/>
</filter>
</defs>
</svg>
