<svg width="245" height="68" viewBox="0 0 245 68" fill="none" xmlns="http://www.w3.org/2000/svg">
<rect x="0.520996" y="6.91943" width="244.162" height="54.884" fill="#53ACCD"/>
<g filter="url(#filter0_d_23_68)">
<path d="M92.8707 33.9014C94.3347 34.2134 95.5107 34.9454 96.3987 36.0974C97.2867 37.2254 97.7307 38.5214 97.7307 39.9854C97.7307 42.0974 96.9867 43.7774 95.4987 45.0255C94.0347 46.2495 91.9827 46.8615 89.3427 46.8615H77.5707V21.5894H88.9467C91.5147 21.5894 93.5187 22.1774 94.9587 23.3534C96.4227 24.5294 97.1547 26.1254 97.1547 28.1414C97.1547 29.6294 96.7587 30.8654 95.9667 31.8494C95.1987 32.8334 94.1667 33.5174 92.8707 33.9014ZM83.7267 31.8134H87.7587C88.7667 31.8134 89.5347 31.5974 90.0627 31.1654C90.6147 30.7094 90.8907 30.0494 90.8907 29.1854C90.8907 28.3214 90.6147 27.6614 90.0627 27.2055C89.5347 26.7495 88.7667 26.5215 87.7587 26.5215H83.7267V31.8134ZM88.2627 41.8934C89.2947 41.8934 90.0867 41.6654 90.6387 41.2095C91.2147 40.7295 91.5027 40.0454 91.5027 39.1574C91.5027 38.2694 91.2027 37.5734 90.6027 37.0694C90.0267 36.5654 89.2227 36.3134 88.1907 36.3134H83.7267V41.8934H88.2627ZM107.457 42.1095H115.521V46.8615H101.301V21.5894H107.457V42.1095ZM124.505 21.5894V36.7095C124.505 38.2214 124.877 39.3854 125.621 40.2015C126.365 41.0174 127.457 41.4254 128.897 41.4254C130.337 41.4254 131.441 41.0174 132.209 40.2015C132.977 39.3854 133.361 38.2214 133.361 36.7095V21.5894H139.517V36.6734C139.517 38.9294 139.037 40.8374 138.077 42.3975C137.117 43.9575 135.821 45.1335 134.189 45.9255C132.581 46.7175 130.781 47.1135 128.789 47.1135C126.797 47.1135 125.009 46.7295 123.425 45.9615C121.865 45.1695 120.629 43.9935 119.717 42.4335C118.805 40.8494 118.349 38.9294 118.349 36.6734V21.5894H124.505ZM149.996 26.5215V31.6334H158.24V36.3854H149.996V41.9294H159.32V46.8615H143.84V21.5894H159.32V26.5215H149.996Z" fill="white"/>
</g>
<defs>
<filter id="filter0_d_23_68" x="76.5708" y="21.5895" width="87.7495" height="31.5239" filterUnits="userSpaceOnUse" color-interpolation-filters="sRGB">
<feFlood flood-opacity="0" result="BackgroundImageFix"/>
<feColorMatrix in="SourceAlpha" type="matrix" values="0 0 0 0 0 0 0 0 0 0 0 0 0 0 0 0 0 0 127 0" result="hardAlpha"/>
<feOffset dx="2" dy="3"/>
<feGaussianBlur stdDeviation="1.5"/>
<feComposite in2="hardAlpha" operator="out"/>
<feColorMatrix type="matrix" values="0 0 0 0 0 0 0 0 0 0 0 0 0 0 0 0 0 0 0.25 0"/>
<feBlend mode="normal" in2="BackgroundImageFix" result="effect1_dropShadow_23_68"/>
<feBlend mode="normal" in="SourceGraphic" in2="effect1_dropShadow_23_68" result="shape"/>
</filter>
</defs>
</svg>
